<mxfile host="Electron" modified="2023-04-23T16:56:47.862Z" agent="Mozilla/5.0 (Macintosh; Intel Mac OS X 10_15_7) AppleWebKit/537.36 (KHTML, like Gecko) draw.io/21.1.2 Chrome/106.0.5249.199 Electron/21.4.3 Safari/537.36" etag="veNJMhGRa05xE_GAzyqK" version="21.1.2" type="device">
  <diagram name="Page-1" id="VG9tUt96xwmWf8ECsrrW">
    <mxGraphModel dx="4041" dy="1949" grid="1" gridSize="10" guides="1" tooltips="1" connect="1" arrows="1" fold="1" page="1" pageScale="1" pageWidth="850" pageHeight="1100" math="0" shadow="0">
      <root>
        <mxCell id="0" />
        <mxCell id="1" parent="0" />
        <mxCell id="zCXyR9ZO4YI8tIfsWMdl-3" value="frame" style="shape=umlFrame;whiteSpace=wrap;html=1;pointerEvents=0;" vertex="1" parent="1">
          <mxGeometry x="585" y="720" width="2085" height="1260" as="geometry" />
        </mxCell>
        <mxCell id="zCXyR9ZO4YI8tIfsWMdl-2" value="&lt;b&gt;&lt;i&gt;Aircraft&lt;/i&gt;&lt;/b&gt;" style="html=1;whiteSpace=wrap;" vertex="1" parent="1">
          <mxGeometry x="585" y="720" width="110" height="50" as="geometry" />
        </mxCell>
        <mxCell id="zCXyR9ZO4YI8tIfsWMdl-4" value="Aircraft" style="swimlane;fontStyle=1;align=center;verticalAlign=top;childLayout=stackLayout;horizontal=1;startSize=26;horizontalStack=0;resizeParent=1;resizeParentMax=0;resizeLast=0;collapsible=1;marginBottom=0;whiteSpace=wrap;html=1;rounded=1;fillColor=#dae8fc;strokeColor=#6c8ebf;movable=1;resizable=1;rotatable=1;deletable=1;editable=1;locked=0;connectable=1;" vertex="1" parent="1">
          <mxGeometry x="885" y="990" width="370" height="424" as="geometry" />
        </mxCell>
        <mxCell id="zCXyR9ZO4YI8tIfsWMdl-5" value="# id : long" style="text;strokeColor=none;fillColor=none;align=left;verticalAlign=top;spacingLeft=4;spacingRight=4;overflow=hidden;rotatable=0;points=[[0,0.5],[1,0.5]];portConstraint=eastwest;whiteSpace=wrap;html=1;" vertex="1" parent="zCXyR9ZO4YI8tIfsWMdl-4">
          <mxGeometry y="26" width="370" height="26" as="geometry" />
        </mxCell>
        <mxCell id="zCXyR9ZO4YI8tIfsWMdl-15" value="# name : String" style="text;strokeColor=none;fillColor=none;align=left;verticalAlign=top;spacingLeft=4;spacingRight=4;overflow=hidden;rotatable=0;points=[[0,0.5],[1,0.5]];portConstraint=eastwest;whiteSpace=wrap;html=1;" vertex="1" parent="zCXyR9ZO4YI8tIfsWMdl-4">
          <mxGeometry y="52" width="370" height="26" as="geometry" />
        </mxCell>
        <mxCell id="zCXyR9ZO4YI8tIfsWMdl-16" value="# type : String" style="text;strokeColor=none;fillColor=none;align=left;verticalAlign=top;spacingLeft=4;spacingRight=4;overflow=hidden;rotatable=0;points=[[0,0.5],[1,0.5]];portConstraint=eastwest;whiteSpace=wrap;html=1;" vertex="1" parent="zCXyR9ZO4YI8tIfsWMdl-4">
          <mxGeometry y="78" width="370" height="26" as="geometry" />
        </mxCell>
        <mxCell id="zCXyR9ZO4YI8tIfsWMdl-17" value="# coordinates : Coordinates" style="text;strokeColor=none;fillColor=none;align=left;verticalAlign=top;spacingLeft=4;spacingRight=4;overflow=hidden;rotatable=0;points=[[0,0.5],[1,0.5]];portConstraint=eastwest;whiteSpace=wrap;html=1;" vertex="1" parent="zCXyR9ZO4YI8tIfsWMdl-4">
          <mxGeometry y="104" width="370" height="26" as="geometry" />
        </mxCell>
        <mxCell id="zCXyR9ZO4YI8tIfsWMdl-44" value="# messageBuilder : AircraftMessageBuilder" style="text;strokeColor=none;fillColor=none;align=left;verticalAlign=top;spacingLeft=4;spacingRight=4;overflow=hidden;rotatable=0;points=[[0,0.5],[1,0.5]];portConstraint=eastwest;whiteSpace=wrap;html=1;" vertex="1" parent="zCXyR9ZO4YI8tIfsWMdl-4">
          <mxGeometry y="130" width="370" height="26" as="geometry" />
        </mxCell>
        <mxCell id="zCXyR9ZO4YI8tIfsWMdl-45" value="# moveUpdateStrategy : AircraftMoveUpdateStrategyInterface" style="text;strokeColor=none;fillColor=none;align=left;verticalAlign=top;spacingLeft=4;spacingRight=4;overflow=hidden;rotatable=0;points=[[0,0.5],[1,0.5]];portConstraint=eastwest;whiteSpace=wrap;html=1;" vertex="1" parent="zCXyR9ZO4YI8tIfsWMdl-4">
          <mxGeometry y="156" width="370" height="26" as="geometry" />
        </mxCell>
        <mxCell id="zCXyR9ZO4YI8tIfsWMdl-21" value="- &lt;u&gt;idCounter : long&lt;/u&gt;" style="text;strokeColor=none;fillColor=none;align=left;verticalAlign=top;spacingLeft=4;spacingRight=4;overflow=hidden;rotatable=0;points=[[0,0.5],[1,0.5]];portConstraint=eastwest;whiteSpace=wrap;html=1;" vertex="1" parent="zCXyR9ZO4YI8tIfsWMdl-4">
          <mxGeometry y="182" width="370" height="26" as="geometry" />
        </mxCell>
        <mxCell id="zCXyR9ZO4YI8tIfsWMdl-6" value="" style="line;strokeWidth=1;fillColor=none;align=left;verticalAlign=middle;spacingTop=-1;spacingLeft=3;spacingRight=3;rotatable=0;labelPosition=right;points=[];portConstraint=eastwest;strokeColor=inherit;" vertex="1" parent="zCXyR9ZO4YI8tIfsWMdl-4">
          <mxGeometry y="208" width="370" height="8" as="geometry" />
        </mxCell>
        <mxCell id="zCXyR9ZO4YI8tIfsWMdl-7" value="# Aircraft(name : String, coordinates : Coordinates)" style="text;strokeColor=none;fillColor=none;align=left;verticalAlign=top;spacingLeft=4;spacingRight=4;overflow=hidden;rotatable=0;points=[[0,0.5],[1,0.5]];portConstraint=eastwest;whiteSpace=wrap;html=1;" vertex="1" parent="zCXyR9ZO4YI8tIfsWMdl-4">
          <mxGeometry y="216" width="370" height="26" as="geometry" />
        </mxCell>
        <mxCell id="zCXyR9ZO4YI8tIfsWMdl-206" value="- nextId() : long" style="text;strokeColor=none;fillColor=none;align=left;verticalAlign=top;spacingLeft=4;spacingRight=4;overflow=hidden;rotatable=0;points=[[0,0.5],[1,0.5]];portConstraint=eastwest;whiteSpace=wrap;html=1;" vertex="1" parent="zCXyR9ZO4YI8tIfsWMdl-4">
          <mxGeometry y="242" width="370" height="26" as="geometry" />
        </mxCell>
        <mxCell id="zCXyR9ZO4YI8tIfsWMdl-22" value="+ getId() : long" style="text;strokeColor=none;fillColor=none;align=left;verticalAlign=top;spacingLeft=4;spacingRight=4;overflow=hidden;rotatable=0;points=[[0,0.5],[1,0.5]];portConstraint=eastwest;whiteSpace=wrap;html=1;" vertex="1" parent="zCXyR9ZO4YI8tIfsWMdl-4">
          <mxGeometry y="268" width="370" height="26" as="geometry" />
        </mxCell>
        <mxCell id="zCXyR9ZO4YI8tIfsWMdl-23" value="+ getName() : String" style="text;strokeColor=none;fillColor=none;align=left;verticalAlign=top;spacingLeft=4;spacingRight=4;overflow=hidden;rotatable=0;points=[[0,0.5],[1,0.5]];portConstraint=eastwest;whiteSpace=wrap;html=1;" vertex="1" parent="zCXyR9ZO4YI8tIfsWMdl-4">
          <mxGeometry y="294" width="370" height="26" as="geometry" />
        </mxCell>
        <mxCell id="zCXyR9ZO4YI8tIfsWMdl-24" value="+ getType() : String" style="text;strokeColor=none;fillColor=none;align=left;verticalAlign=top;spacingLeft=4;spacingRight=4;overflow=hidden;rotatable=0;points=[[0,0.5],[1,0.5]];portConstraint=eastwest;whiteSpace=wrap;html=1;" vertex="1" parent="zCXyR9ZO4YI8tIfsWMdl-4">
          <mxGeometry y="320" width="370" height="26" as="geometry" />
        </mxCell>
        <mxCell id="zCXyR9ZO4YI8tIfsWMdl-25" value="+ getCoordinates() : Coordinates" style="text;strokeColor=none;fillColor=none;align=left;verticalAlign=top;spacingLeft=4;spacingRight=4;overflow=hidden;rotatable=0;points=[[0,0.5],[1,0.5]];portConstraint=eastwest;whiteSpace=wrap;html=1;" vertex="1" parent="zCXyR9ZO4YI8tIfsWMdl-4">
          <mxGeometry y="346" width="370" height="26" as="geometry" />
        </mxCell>
        <mxCell id="zCXyR9ZO4YI8tIfsWMdl-26" value="+ setCoordinates(Coordinates) : void" style="text;strokeColor=none;fillColor=none;align=left;verticalAlign=top;spacingLeft=4;spacingRight=4;overflow=hidden;rotatable=0;points=[[0,0.5],[1,0.5]];portConstraint=eastwest;whiteSpace=wrap;html=1;" vertex="1" parent="zCXyR9ZO4YI8tIfsWMdl-4">
          <mxGeometry y="372" width="370" height="26" as="geometry" />
        </mxCell>
        <mxCell id="zCXyR9ZO4YI8tIfsWMdl-27" value="+ speak() : void" style="text;strokeColor=none;fillColor=none;align=left;verticalAlign=top;spacingLeft=4;spacingRight=4;overflow=hidden;rotatable=0;points=[[0,0.5],[1,0.5]];portConstraint=eastwest;whiteSpace=wrap;html=1;" vertex="1" parent="zCXyR9ZO4YI8tIfsWMdl-4">
          <mxGeometry y="398" width="370" height="26" as="geometry" />
        </mxCell>
        <mxCell id="zCXyR9ZO4YI8tIfsWMdl-20" value="&lt;p style=&quot;margin:0px;margin-top:4px;text-align:center;&quot;&gt;&lt;i&gt;&amp;lt;&amp;lt;Interface&amp;gt;&amp;gt;&lt;/i&gt;&lt;br&gt;&lt;b&gt;Flyable&lt;/b&gt;&lt;/p&gt;&lt;hr size=&quot;1&quot;&gt;&lt;p style=&quot;margin:0px;margin-left:4px;&quot;&gt;+ updateConditions() : void&lt;br&gt;+ registerTower(WeatherTower) : void&lt;br&gt;&lt;/p&gt;&lt;p style=&quot;margin:0px;margin-left:4px;&quot;&gt;+ land(WeatherTower) : void&lt;br&gt;+ getAircraftBarcode() : String&lt;br&gt;+ getCoordinates() : Coordinates&lt;br&gt;&lt;/p&gt;" style="verticalAlign=top;align=left;overflow=fill;fontSize=12;fontFamily=Helvetica;html=1;whiteSpace=wrap;rounded=0;fillColor=#f5f5f5;strokeColor=#666666;fontColor=#333333;movable=1;resizable=1;rotatable=1;deletable=1;editable=1;locked=0;connectable=1;" vertex="1" parent="1">
          <mxGeometry x="510" y="810" width="230" height="140" as="geometry" />
        </mxCell>
        <mxCell id="zCXyR9ZO4YI8tIfsWMdl-42" style="edgeStyle=orthogonalEdgeStyle;rounded=0;orthogonalLoop=1;jettySize=auto;html=1;exitX=0.75;exitY=0;exitDx=0;exitDy=0;endArrow=block;endFill=0;" edge="1" parent="1" source="zCXyR9ZO4YI8tIfsWMdl-28" target="zCXyR9ZO4YI8tIfsWMdl-4">
          <mxGeometry relative="1" as="geometry">
            <Array as="points">
              <mxPoint x="828" y="1500" />
              <mxPoint x="1070" y="1500" />
            </Array>
          </mxGeometry>
        </mxCell>
        <mxCell id="zCXyR9ZO4YI8tIfsWMdl-128" style="edgeStyle=orthogonalEdgeStyle;rounded=0;orthogonalLoop=1;jettySize=auto;html=1;entryX=0.5;entryY=1;entryDx=0;entryDy=0;dashed=1;dashPattern=8 8;endArrow=blockThin;endFill=1;" edge="1" parent="1" source="zCXyR9ZO4YI8tIfsWMdl-28" target="zCXyR9ZO4YI8tIfsWMdl-20">
          <mxGeometry relative="1" as="geometry">
            <Array as="points">
              <mxPoint x="795" y="1530" />
              <mxPoint x="625" y="1530" />
            </Array>
          </mxGeometry>
        </mxCell>
        <mxCell id="zCXyR9ZO4YI8tIfsWMdl-28" value="Baloon" style="swimlane;fontStyle=1;align=center;verticalAlign=top;childLayout=stackLayout;horizontal=1;startSize=26;horizontalStack=0;resizeParent=1;resizeParentMax=0;resizeLast=0;collapsible=1;marginBottom=0;whiteSpace=wrap;html=1;rounded=1;fillColor=#d5e8d4;strokeColor=#82b366;" vertex="1" parent="1">
          <mxGeometry x="650" y="1590" width="290" height="216" as="geometry" />
        </mxCell>
        <mxCell id="zCXyR9ZO4YI8tIfsWMdl-34" value="" style="line;strokeWidth=1;fillColor=none;align=left;verticalAlign=middle;spacingTop=-1;spacingLeft=3;spacingRight=3;rotatable=0;labelPosition=right;points=[];portConstraint=eastwest;strokeColor=inherit;" vertex="1" parent="zCXyR9ZO4YI8tIfsWMdl-28">
          <mxGeometry y="26" width="290" height="8" as="geometry" />
        </mxCell>
        <mxCell id="zCXyR9ZO4YI8tIfsWMdl-41" value="+ Baloon(name : String, coordinates : Coordinates)" style="text;strokeColor=none;fillColor=none;align=left;verticalAlign=top;spacingLeft=4;spacingRight=4;overflow=hidden;rotatable=0;points=[[0,0.5],[1,0.5]];portConstraint=eastwest;whiteSpace=wrap;html=1;" vertex="1" parent="zCXyR9ZO4YI8tIfsWMdl-28">
          <mxGeometry y="34" width="290" height="26" as="geometry" />
        </mxCell>
        <mxCell id="zCXyR9ZO4YI8tIfsWMdl-211" value="+ updateConditions() : void" style="text;strokeColor=none;fillColor=none;align=left;verticalAlign=top;spacingLeft=4;spacingRight=4;overflow=hidden;rotatable=0;points=[[0,0.5],[1,0.5]];portConstraint=eastwest;whiteSpace=wrap;html=1;" vertex="1" parent="zCXyR9ZO4YI8tIfsWMdl-28">
          <mxGeometry y="60" width="290" height="26" as="geometry" />
        </mxCell>
        <mxCell id="zCXyR9ZO4YI8tIfsWMdl-47" value="+ registerTower(WeatherTower) : void" style="text;strokeColor=none;fillColor=none;align=left;verticalAlign=top;spacingLeft=4;spacingRight=4;overflow=hidden;rotatable=0;points=[[0,0.5],[1,0.5]];portConstraint=eastwest;whiteSpace=wrap;html=1;" vertex="1" parent="zCXyR9ZO4YI8tIfsWMdl-28">
          <mxGeometry y="86" width="290" height="26" as="geometry" />
        </mxCell>
        <mxCell id="zCXyR9ZO4YI8tIfsWMdl-48" value="+ land(WeatherTower) : void" style="text;strokeColor=none;fillColor=none;align=left;verticalAlign=top;spacingLeft=4;spacingRight=4;overflow=hidden;rotatable=0;points=[[0,0.5],[1,0.5]];portConstraint=eastwest;whiteSpace=wrap;html=1;" vertex="1" parent="zCXyR9ZO4YI8tIfsWMdl-28">
          <mxGeometry y="112" width="290" height="26" as="geometry" />
        </mxCell>
        <mxCell id="zCXyR9ZO4YI8tIfsWMdl-49" value="+ getCoordinates() : Coordinates" style="text;strokeColor=none;fillColor=none;align=left;verticalAlign=top;spacingLeft=4;spacingRight=4;overflow=hidden;rotatable=0;points=[[0,0.5],[1,0.5]];portConstraint=eastwest;whiteSpace=wrap;html=1;" vertex="1" parent="zCXyR9ZO4YI8tIfsWMdl-28">
          <mxGeometry y="138" width="290" height="26" as="geometry" />
        </mxCell>
        <mxCell id="zCXyR9ZO4YI8tIfsWMdl-50" value="+ getAircraftBarcode() : String" style="text;strokeColor=none;fillColor=none;align=left;verticalAlign=top;spacingLeft=4;spacingRight=4;overflow=hidden;rotatable=0;points=[[0,0.5],[1,0.5]];portConstraint=eastwest;whiteSpace=wrap;html=1;" vertex="1" parent="zCXyR9ZO4YI8tIfsWMdl-28">
          <mxGeometry y="164" width="290" height="26" as="geometry" />
        </mxCell>
        <mxCell id="zCXyR9ZO4YI8tIfsWMdl-46" value="+ speak() : void" style="text;strokeColor=none;fillColor=none;align=left;verticalAlign=top;spacingLeft=4;spacingRight=4;overflow=hidden;rotatable=0;points=[[0,0.5],[1,0.5]];portConstraint=eastwest;whiteSpace=wrap;html=1;" vertex="1" parent="zCXyR9ZO4YI8tIfsWMdl-28">
          <mxGeometry y="190" width="290" height="26" as="geometry" />
        </mxCell>
        <mxCell id="zCXyR9ZO4YI8tIfsWMdl-68" style="edgeStyle=orthogonalEdgeStyle;rounded=0;orthogonalLoop=1;jettySize=auto;html=1;endArrow=block;endFill=0;" edge="1" parent="1" source="zCXyR9ZO4YI8tIfsWMdl-51" target="zCXyR9ZO4YI8tIfsWMdl-4">
          <mxGeometry relative="1" as="geometry">
            <Array as="points">
              <mxPoint x="1110" y="1500" />
              <mxPoint x="1070" y="1500" />
            </Array>
          </mxGeometry>
        </mxCell>
        <mxCell id="zCXyR9ZO4YI8tIfsWMdl-129" style="edgeStyle=orthogonalEdgeStyle;rounded=0;orthogonalLoop=1;jettySize=auto;html=1;entryX=0.5;entryY=1;entryDx=0;entryDy=0;dashed=1;dashPattern=8 8;endArrow=blockThin;endFill=1;" edge="1" parent="1" source="zCXyR9ZO4YI8tIfsWMdl-51" target="zCXyR9ZO4YI8tIfsWMdl-20">
          <mxGeometry relative="1" as="geometry">
            <Array as="points">
              <mxPoint x="1010" y="1530" />
              <mxPoint x="625" y="1530" />
            </Array>
          </mxGeometry>
        </mxCell>
        <mxCell id="zCXyR9ZO4YI8tIfsWMdl-51" value="Helicopter" style="swimlane;fontStyle=1;align=center;verticalAlign=top;childLayout=stackLayout;horizontal=1;startSize=26;horizontalStack=0;resizeParent=1;resizeParentMax=0;resizeLast=0;collapsible=1;marginBottom=0;whiteSpace=wrap;html=1;rounded=1;fillColor=#d5e8d4;strokeColor=#82b366;" vertex="1" parent="1">
          <mxGeometry x="960" y="1590" width="300" height="216" as="geometry" />
        </mxCell>
        <mxCell id="zCXyR9ZO4YI8tIfsWMdl-52" value="" style="line;strokeWidth=1;fillColor=none;align=left;verticalAlign=middle;spacingTop=-1;spacingLeft=3;spacingRight=3;rotatable=0;labelPosition=right;points=[];portConstraint=eastwest;strokeColor=inherit;" vertex="1" parent="zCXyR9ZO4YI8tIfsWMdl-51">
          <mxGeometry y="26" width="300" height="8" as="geometry" />
        </mxCell>
        <mxCell id="zCXyR9ZO4YI8tIfsWMdl-53" value="+ Helicopter(name : String, coordinates : Coordinates)" style="text;strokeColor=none;fillColor=none;align=left;verticalAlign=top;spacingLeft=4;spacingRight=4;overflow=hidden;rotatable=0;points=[[0,0.5],[1,0.5]];portConstraint=eastwest;whiteSpace=wrap;html=1;" vertex="1" parent="zCXyR9ZO4YI8tIfsWMdl-51">
          <mxGeometry y="34" width="300" height="26" as="geometry" />
        </mxCell>
        <mxCell id="zCXyR9ZO4YI8tIfsWMdl-213" value="+ updateConditions() : void" style="text;strokeColor=none;fillColor=none;align=left;verticalAlign=top;spacingLeft=4;spacingRight=4;overflow=hidden;rotatable=0;points=[[0,0.5],[1,0.5]];portConstraint=eastwest;whiteSpace=wrap;html=1;" vertex="1" parent="zCXyR9ZO4YI8tIfsWMdl-51">
          <mxGeometry y="60" width="300" height="26" as="geometry" />
        </mxCell>
        <mxCell id="zCXyR9ZO4YI8tIfsWMdl-54" value="+ registerTower(WeatherTower) : void" style="text;strokeColor=none;fillColor=none;align=left;verticalAlign=top;spacingLeft=4;spacingRight=4;overflow=hidden;rotatable=0;points=[[0,0.5],[1,0.5]];portConstraint=eastwest;whiteSpace=wrap;html=1;" vertex="1" parent="zCXyR9ZO4YI8tIfsWMdl-51">
          <mxGeometry y="86" width="300" height="26" as="geometry" />
        </mxCell>
        <mxCell id="zCXyR9ZO4YI8tIfsWMdl-55" value="+ land(WeatherTower) : void" style="text;strokeColor=none;fillColor=none;align=left;verticalAlign=top;spacingLeft=4;spacingRight=4;overflow=hidden;rotatable=0;points=[[0,0.5],[1,0.5]];portConstraint=eastwest;whiteSpace=wrap;html=1;" vertex="1" parent="zCXyR9ZO4YI8tIfsWMdl-51">
          <mxGeometry y="112" width="300" height="26" as="geometry" />
        </mxCell>
        <mxCell id="zCXyR9ZO4YI8tIfsWMdl-56" value="+ getCoordinates() : Coordinates" style="text;strokeColor=none;fillColor=none;align=left;verticalAlign=top;spacingLeft=4;spacingRight=4;overflow=hidden;rotatable=0;points=[[0,0.5],[1,0.5]];portConstraint=eastwest;whiteSpace=wrap;html=1;" vertex="1" parent="zCXyR9ZO4YI8tIfsWMdl-51">
          <mxGeometry y="138" width="300" height="26" as="geometry" />
        </mxCell>
        <mxCell id="zCXyR9ZO4YI8tIfsWMdl-57" value="+ getAircraftBarcode() : String" style="text;strokeColor=none;fillColor=none;align=left;verticalAlign=top;spacingLeft=4;spacingRight=4;overflow=hidden;rotatable=0;points=[[0,0.5],[1,0.5]];portConstraint=eastwest;whiteSpace=wrap;html=1;" vertex="1" parent="zCXyR9ZO4YI8tIfsWMdl-51">
          <mxGeometry y="164" width="300" height="26" as="geometry" />
        </mxCell>
        <mxCell id="zCXyR9ZO4YI8tIfsWMdl-58" value="+ speak() : void" style="text;strokeColor=none;fillColor=none;align=left;verticalAlign=top;spacingLeft=4;spacingRight=4;overflow=hidden;rotatable=0;points=[[0,0.5],[1,0.5]];portConstraint=eastwest;whiteSpace=wrap;html=1;" vertex="1" parent="zCXyR9ZO4YI8tIfsWMdl-51">
          <mxGeometry y="190" width="300" height="26" as="geometry" />
        </mxCell>
        <mxCell id="zCXyR9ZO4YI8tIfsWMdl-69" style="edgeStyle=orthogonalEdgeStyle;rounded=0;orthogonalLoop=1;jettySize=auto;html=1;endArrow=block;endFill=0;" edge="1" parent="1" source="zCXyR9ZO4YI8tIfsWMdl-59" target="zCXyR9ZO4YI8tIfsWMdl-4">
          <mxGeometry relative="1" as="geometry">
            <Array as="points">
              <mxPoint x="1330" y="1500" />
              <mxPoint x="1070" y="1500" />
            </Array>
          </mxGeometry>
        </mxCell>
        <mxCell id="zCXyR9ZO4YI8tIfsWMdl-130" style="edgeStyle=orthogonalEdgeStyle;rounded=0;orthogonalLoop=1;jettySize=auto;html=1;dashed=1;dashPattern=8 8;endArrow=blockThin;endFill=1;" edge="1" parent="1" source="zCXyR9ZO4YI8tIfsWMdl-59" target="zCXyR9ZO4YI8tIfsWMdl-20">
          <mxGeometry relative="1" as="geometry">
            <Array as="points">
              <mxPoint x="1280" y="1530" />
              <mxPoint x="625" y="1530" />
            </Array>
          </mxGeometry>
        </mxCell>
        <mxCell id="zCXyR9ZO4YI8tIfsWMdl-59" value="JetPlane" style="swimlane;fontStyle=1;align=center;verticalAlign=top;childLayout=stackLayout;horizontal=1;startSize=26;horizontalStack=0;resizeParent=1;resizeParentMax=0;resizeLast=0;collapsible=1;marginBottom=0;whiteSpace=wrap;html=1;rounded=1;fillColor=#d5e8d4;strokeColor=#82b366;" vertex="1" parent="1">
          <mxGeometry x="1280" y="1590" width="290" height="216" as="geometry" />
        </mxCell>
        <mxCell id="zCXyR9ZO4YI8tIfsWMdl-60" value="" style="line;strokeWidth=1;fillColor=none;align=left;verticalAlign=middle;spacingTop=-1;spacingLeft=3;spacingRight=3;rotatable=0;labelPosition=right;points=[];portConstraint=eastwest;strokeColor=inherit;" vertex="1" parent="zCXyR9ZO4YI8tIfsWMdl-59">
          <mxGeometry y="26" width="290" height="8" as="geometry" />
        </mxCell>
        <mxCell id="zCXyR9ZO4YI8tIfsWMdl-61" value="+ JetPlane(name : String, coordinates : Coordinates)" style="text;strokeColor=none;fillColor=none;align=left;verticalAlign=top;spacingLeft=4;spacingRight=4;overflow=hidden;rotatable=0;points=[[0,0.5],[1,0.5]];portConstraint=eastwest;whiteSpace=wrap;html=1;" vertex="1" parent="zCXyR9ZO4YI8tIfsWMdl-59">
          <mxGeometry y="34" width="290" height="26" as="geometry" />
        </mxCell>
        <mxCell id="zCXyR9ZO4YI8tIfsWMdl-214" value="+ updateConditions() : void" style="text;strokeColor=none;fillColor=none;align=left;verticalAlign=top;spacingLeft=4;spacingRight=4;overflow=hidden;rotatable=0;points=[[0,0.5],[1,0.5]];portConstraint=eastwest;whiteSpace=wrap;html=1;" vertex="1" parent="zCXyR9ZO4YI8tIfsWMdl-59">
          <mxGeometry y="60" width="290" height="26" as="geometry" />
        </mxCell>
        <mxCell id="zCXyR9ZO4YI8tIfsWMdl-62" value="+ registerTower(WeatherTower) : void" style="text;strokeColor=none;fillColor=none;align=left;verticalAlign=top;spacingLeft=4;spacingRight=4;overflow=hidden;rotatable=0;points=[[0,0.5],[1,0.5]];portConstraint=eastwest;whiteSpace=wrap;html=1;" vertex="1" parent="zCXyR9ZO4YI8tIfsWMdl-59">
          <mxGeometry y="86" width="290" height="26" as="geometry" />
        </mxCell>
        <mxCell id="zCXyR9ZO4YI8tIfsWMdl-63" value="+ land(WeatherTower) : void" style="text;strokeColor=none;fillColor=none;align=left;verticalAlign=top;spacingLeft=4;spacingRight=4;overflow=hidden;rotatable=0;points=[[0,0.5],[1,0.5]];portConstraint=eastwest;whiteSpace=wrap;html=1;" vertex="1" parent="zCXyR9ZO4YI8tIfsWMdl-59">
          <mxGeometry y="112" width="290" height="26" as="geometry" />
        </mxCell>
        <mxCell id="zCXyR9ZO4YI8tIfsWMdl-64" value="+ getCoordinates() : Coordinates" style="text;strokeColor=none;fillColor=none;align=left;verticalAlign=top;spacingLeft=4;spacingRight=4;overflow=hidden;rotatable=0;points=[[0,0.5],[1,0.5]];portConstraint=eastwest;whiteSpace=wrap;html=1;" vertex="1" parent="zCXyR9ZO4YI8tIfsWMdl-59">
          <mxGeometry y="138" width="290" height="26" as="geometry" />
        </mxCell>
        <mxCell id="zCXyR9ZO4YI8tIfsWMdl-65" value="+ getAircraftBarcode() : String" style="text;strokeColor=none;fillColor=none;align=left;verticalAlign=top;spacingLeft=4;spacingRight=4;overflow=hidden;rotatable=0;points=[[0,0.5],[1,0.5]];portConstraint=eastwest;whiteSpace=wrap;html=1;" vertex="1" parent="zCXyR9ZO4YI8tIfsWMdl-59">
          <mxGeometry y="164" width="290" height="26" as="geometry" />
        </mxCell>
        <mxCell id="zCXyR9ZO4YI8tIfsWMdl-66" value="+ speak() : void" style="text;strokeColor=none;fillColor=none;align=left;verticalAlign=top;spacingLeft=4;spacingRight=4;overflow=hidden;rotatable=0;points=[[0,0.5],[1,0.5]];portConstraint=eastwest;whiteSpace=wrap;html=1;" vertex="1" parent="zCXyR9ZO4YI8tIfsWMdl-59">
          <mxGeometry y="190" width="290" height="26" as="geometry" />
        </mxCell>
        <mxCell id="zCXyR9ZO4YI8tIfsWMdl-110" value="" style="group" vertex="1" connectable="0" parent="1">
          <mxGeometry x="1830" y="750" width="790" height="463" as="geometry" />
        </mxCell>
        <mxCell id="zCXyR9ZO4YI8tIfsWMdl-70" value="frame" style="shape=umlFrame;whiteSpace=wrap;html=1;pointerEvents=0;" vertex="1" parent="zCXyR9ZO4YI8tIfsWMdl-110">
          <mxGeometry x="70" width="720" height="350" as="geometry" />
        </mxCell>
        <mxCell id="zCXyR9ZO4YI8tIfsWMdl-71" value="&lt;b&gt;&lt;i&gt;UpdateStrategy&lt;/i&gt;&lt;/b&gt;" style="html=1;whiteSpace=wrap;" vertex="1" parent="zCXyR9ZO4YI8tIfsWMdl-110">
          <mxGeometry x="70" width="110" height="50" as="geometry" />
        </mxCell>
        <mxCell id="zCXyR9ZO4YI8tIfsWMdl-73" value="&lt;p style=&quot;margin:0px;margin-top:4px;text-align:center;&quot;&gt;&lt;i&gt;&amp;lt;&amp;lt;Interface&amp;gt;&amp;gt;&lt;/i&gt;&lt;br&gt;&lt;/p&gt;&lt;p style=&quot;margin:0px;margin-top:4px;text-align:center;&quot;&gt;&lt;i&gt;AircraftMoveUpdateStrategyInterface&lt;/i&gt;&lt;/p&gt;&lt;hr size=&quot;1&quot;&gt;&lt;p style=&quot;margin:0px;margin-left:4px;&quot;&gt;+ update(Coordinates) : void&lt;/p&gt;" style="verticalAlign=top;align=left;overflow=fill;fontSize=12;fontFamily=Helvetica;html=1;whiteSpace=wrap;rounded=0;fillColor=#f5f5f5;strokeColor=#666666;fontColor=#333333;movable=1;resizable=1;rotatable=1;deletable=1;editable=1;locked=0;connectable=1;" vertex="1" parent="zCXyR9ZO4YI8tIfsWMdl-110">
          <mxGeometry y="80" width="230" height="80" as="geometry" />
        </mxCell>
        <mxCell id="zCXyR9ZO4YI8tIfsWMdl-74" value="AircraftMoveUpdateStrategy" style="swimlane;fontStyle=1;align=center;verticalAlign=top;childLayout=stackLayout;horizontal=1;startSize=26;horizontalStack=0;resizeParent=1;resizeParentMax=0;resizeLast=0;collapsible=1;marginBottom=0;whiteSpace=wrap;html=1;rounded=1;fillColor=#dae8fc;strokeColor=#6c8ebf;movable=1;resizable=1;rotatable=1;deletable=1;editable=1;locked=0;connectable=1;" vertex="1" parent="zCXyR9ZO4YI8tIfsWMdl-110">
          <mxGeometry x="285" y="50" width="405" height="86" as="geometry" />
        </mxCell>
        <mxCell id="zCXyR9ZO4YI8tIfsWMdl-82" value="" style="line;strokeWidth=1;fillColor=none;align=left;verticalAlign=middle;spacingTop=-1;spacingLeft=3;spacingRight=3;rotatable=0;labelPosition=right;points=[];portConstraint=eastwest;strokeColor=inherit;" vertex="1" parent="zCXyR9ZO4YI8tIfsWMdl-74">
          <mxGeometry y="26" width="405" height="8" as="geometry" />
        </mxCell>
        <mxCell id="zCXyR9ZO4YI8tIfsWMdl-89" value="+ AircraftMoveUpdateStrategy()" style="text;strokeColor=none;fillColor=none;align=left;verticalAlign=top;spacingLeft=4;spacingRight=4;overflow=hidden;rotatable=0;points=[[0,0.5],[1,0.5]];portConstraint=eastwest;whiteSpace=wrap;html=1;" vertex="1" parent="zCXyR9ZO4YI8tIfsWMdl-74">
          <mxGeometry y="34" width="405" height="26" as="geometry" />
        </mxCell>
        <mxCell id="zCXyR9ZO4YI8tIfsWMdl-216" value="+ addToCoordinates(Coordinates, int, int, int) : void" style="text;strokeColor=none;fillColor=none;align=left;verticalAlign=top;spacingLeft=4;spacingRight=4;overflow=hidden;rotatable=0;points=[[0,0.5],[1,0.5]];portConstraint=eastwest;whiteSpace=wrap;html=1;" vertex="1" parent="zCXyR9ZO4YI8tIfsWMdl-74">
          <mxGeometry y="60" width="405" height="26" as="geometry" />
        </mxCell>
        <mxCell id="zCXyR9ZO4YI8tIfsWMdl-105" style="edgeStyle=orthogonalEdgeStyle;rounded=0;orthogonalLoop=1;jettySize=auto;html=1;endArrow=block;endFill=0;" edge="1" parent="zCXyR9ZO4YI8tIfsWMdl-110" source="zCXyR9ZO4YI8tIfsWMdl-90" target="zCXyR9ZO4YI8tIfsWMdl-74">
          <mxGeometry relative="1" as="geometry">
            <Array as="points">
              <mxPoint x="488" y="160" />
              <mxPoint x="488" y="160" />
            </Array>
          </mxGeometry>
        </mxCell>
        <mxCell id="zCXyR9ZO4YI8tIfsWMdl-108" style="edgeStyle=orthogonalEdgeStyle;rounded=0;orthogonalLoop=1;jettySize=auto;html=1;dashed=1;dashPattern=8 8;endArrow=blockThin;endFill=1;" edge="1" parent="zCXyR9ZO4YI8tIfsWMdl-110" source="zCXyR9ZO4YI8tIfsWMdl-90" target="zCXyR9ZO4YI8tIfsWMdl-73">
          <mxGeometry relative="1" as="geometry">
            <Array as="points">
              <mxPoint x="340" y="210" />
              <mxPoint x="115" y="210" />
            </Array>
          </mxGeometry>
        </mxCell>
        <mxCell id="zCXyR9ZO4YI8tIfsWMdl-90" value="HelicopterMoveUpdateStrategy" style="swimlane;fontStyle=1;align=center;verticalAlign=top;childLayout=stackLayout;horizontal=1;startSize=26;horizontalStack=0;resizeParent=1;resizeParentMax=0;resizeLast=0;collapsible=1;marginBottom=0;whiteSpace=wrap;html=1;rounded=1;fillColor=#d5e8d4;strokeColor=#82b366;" vertex="1" parent="zCXyR9ZO4YI8tIfsWMdl-110">
          <mxGeometry x="320" y="230" width="220" height="86" as="geometry" />
        </mxCell>
        <mxCell id="zCXyR9ZO4YI8tIfsWMdl-91" value="" style="line;strokeWidth=1;fillColor=none;align=left;verticalAlign=middle;spacingTop=-1;spacingLeft=3;spacingRight=3;rotatable=0;labelPosition=right;points=[];portConstraint=eastwest;strokeColor=inherit;" vertex="1" parent="zCXyR9ZO4YI8tIfsWMdl-90">
          <mxGeometry y="26" width="220" height="8" as="geometry" />
        </mxCell>
        <mxCell id="zCXyR9ZO4YI8tIfsWMdl-97" value="+ HelicopterMoveUpdateStrategy()" style="text;strokeColor=none;fillColor=none;align=left;verticalAlign=top;spacingLeft=4;spacingRight=4;overflow=hidden;rotatable=0;points=[[0,0.5],[1,0.5]];portConstraint=eastwest;whiteSpace=wrap;html=1;" vertex="1" parent="zCXyR9ZO4YI8tIfsWMdl-90">
          <mxGeometry y="34" width="220" height="26" as="geometry" />
        </mxCell>
        <mxCell id="zCXyR9ZO4YI8tIfsWMdl-218" value="+ update(Coordinates) : void" style="text;strokeColor=none;fillColor=none;align=left;verticalAlign=top;spacingLeft=4;spacingRight=4;overflow=hidden;rotatable=0;points=[[0,0.5],[1,0.5]];portConstraint=eastwest;whiteSpace=wrap;html=1;" vertex="1" parent="zCXyR9ZO4YI8tIfsWMdl-90">
          <mxGeometry y="60" width="220" height="26" as="geometry" />
        </mxCell>
        <mxCell id="zCXyR9ZO4YI8tIfsWMdl-106" style="edgeStyle=orthogonalEdgeStyle;rounded=0;orthogonalLoop=1;jettySize=auto;html=1;endArrow=block;endFill=0;" edge="1" parent="zCXyR9ZO4YI8tIfsWMdl-110" source="zCXyR9ZO4YI8tIfsWMdl-98" target="zCXyR9ZO4YI8tIfsWMdl-74">
          <mxGeometry relative="1" as="geometry" />
        </mxCell>
        <mxCell id="zCXyR9ZO4YI8tIfsWMdl-107" style="edgeStyle=orthogonalEdgeStyle;rounded=0;orthogonalLoop=1;jettySize=auto;html=1;exitX=0.25;exitY=0;exitDx=0;exitDy=0;dashed=1;dashPattern=8 8;endArrow=blockThin;endFill=1;" edge="1" parent="zCXyR9ZO4YI8tIfsWMdl-110" source="zCXyR9ZO4YI8tIfsWMdl-98" target="zCXyR9ZO4YI8tIfsWMdl-73">
          <mxGeometry relative="1" as="geometry">
            <Array as="points">
              <mxPoint x="165" y="210" />
              <mxPoint x="115" y="210" />
            </Array>
          </mxGeometry>
        </mxCell>
        <mxCell id="zCXyR9ZO4YI8tIfsWMdl-98" value="BaloonMoveUpdateStrategy" style="swimlane;fontStyle=1;align=center;verticalAlign=top;childLayout=stackLayout;horizontal=1;startSize=26;horizontalStack=0;resizeParent=1;resizeParentMax=0;resizeLast=0;collapsible=1;marginBottom=0;whiteSpace=wrap;html=1;rounded=1;fillColor=#d5e8d4;strokeColor=#82b366;" vertex="1" parent="zCXyR9ZO4YI8tIfsWMdl-110">
          <mxGeometry x="120" y="230" width="190" height="86" as="geometry" />
        </mxCell>
        <mxCell id="zCXyR9ZO4YI8tIfsWMdl-99" value="" style="line;strokeWidth=1;fillColor=none;align=left;verticalAlign=middle;spacingTop=-1;spacingLeft=3;spacingRight=3;rotatable=0;labelPosition=right;points=[];portConstraint=eastwest;strokeColor=inherit;" vertex="1" parent="zCXyR9ZO4YI8tIfsWMdl-98">
          <mxGeometry y="26" width="190" height="8" as="geometry" />
        </mxCell>
        <mxCell id="zCXyR9ZO4YI8tIfsWMdl-100" value="+ BaloonMoveUpdateStrategy()" style="text;strokeColor=none;fillColor=none;align=left;verticalAlign=top;spacingLeft=4;spacingRight=4;overflow=hidden;rotatable=0;points=[[0,0.5],[1,0.5]];portConstraint=eastwest;whiteSpace=wrap;html=1;" vertex="1" parent="zCXyR9ZO4YI8tIfsWMdl-98">
          <mxGeometry y="34" width="190" height="26" as="geometry" />
        </mxCell>
        <mxCell id="zCXyR9ZO4YI8tIfsWMdl-217" value="+ update(Coordinates) : void" style="text;strokeColor=none;fillColor=none;align=left;verticalAlign=top;spacingLeft=4;spacingRight=4;overflow=hidden;rotatable=0;points=[[0,0.5],[1,0.5]];portConstraint=eastwest;whiteSpace=wrap;html=1;" vertex="1" parent="zCXyR9ZO4YI8tIfsWMdl-98">
          <mxGeometry y="60" width="190" height="26" as="geometry" />
        </mxCell>
        <mxCell id="zCXyR9ZO4YI8tIfsWMdl-104" style="edgeStyle=orthogonalEdgeStyle;rounded=0;orthogonalLoop=1;jettySize=auto;html=1;endArrow=block;endFill=0;" edge="1" parent="zCXyR9ZO4YI8tIfsWMdl-110" source="zCXyR9ZO4YI8tIfsWMdl-101" target="zCXyR9ZO4YI8tIfsWMdl-74">
          <mxGeometry relative="1" as="geometry" />
        </mxCell>
        <mxCell id="zCXyR9ZO4YI8tIfsWMdl-109" style="edgeStyle=orthogonalEdgeStyle;rounded=0;orthogonalLoop=1;jettySize=auto;html=1;exitX=0.25;exitY=0;exitDx=0;exitDy=0;dashed=1;dashPattern=8 8;endArrow=blockThin;endFill=1;" edge="1" parent="zCXyR9ZO4YI8tIfsWMdl-110" source="zCXyR9ZO4YI8tIfsWMdl-101" target="zCXyR9ZO4YI8tIfsWMdl-73">
          <mxGeometry relative="1" as="geometry">
            <Array as="points">
              <mxPoint x="598" y="210" />
              <mxPoint x="115" y="210" />
            </Array>
          </mxGeometry>
        </mxCell>
        <mxCell id="zCXyR9ZO4YI8tIfsWMdl-101" value="JetPlaneMoveUpdateStrategy" style="swimlane;fontStyle=1;align=center;verticalAlign=top;childLayout=stackLayout;horizontal=1;startSize=26;horizontalStack=0;resizeParent=1;resizeParentMax=0;resizeLast=0;collapsible=1;marginBottom=0;whiteSpace=wrap;html=1;rounded=1;fillColor=#d5e8d4;strokeColor=#82b366;" vertex="1" parent="zCXyR9ZO4YI8tIfsWMdl-110">
          <mxGeometry x="550" y="230" width="210" height="86" as="geometry" />
        </mxCell>
        <mxCell id="zCXyR9ZO4YI8tIfsWMdl-102" value="" style="line;strokeWidth=1;fillColor=none;align=left;verticalAlign=middle;spacingTop=-1;spacingLeft=3;spacingRight=3;rotatable=0;labelPosition=right;points=[];portConstraint=eastwest;strokeColor=inherit;" vertex="1" parent="zCXyR9ZO4YI8tIfsWMdl-101">
          <mxGeometry y="26" width="210" height="8" as="geometry" />
        </mxCell>
        <mxCell id="zCXyR9ZO4YI8tIfsWMdl-103" value="+ JetPlaneMoveUpdateStrategy()" style="text;strokeColor=none;fillColor=none;align=left;verticalAlign=top;spacingLeft=4;spacingRight=4;overflow=hidden;rotatable=0;points=[[0,0.5],[1,0.5]];portConstraint=eastwest;whiteSpace=wrap;html=1;" vertex="1" parent="zCXyR9ZO4YI8tIfsWMdl-101">
          <mxGeometry y="34" width="210" height="26" as="geometry" />
        </mxCell>
        <mxCell id="zCXyR9ZO4YI8tIfsWMdl-219" value="+ update(Coordinates) : void" style="text;strokeColor=none;fillColor=none;align=left;verticalAlign=top;spacingLeft=4;spacingRight=4;overflow=hidden;rotatable=0;points=[[0,0.5],[1,0.5]];portConstraint=eastwest;whiteSpace=wrap;html=1;" vertex="1" parent="zCXyR9ZO4YI8tIfsWMdl-101">
          <mxGeometry y="60" width="210" height="26" as="geometry" />
        </mxCell>
        <mxCell id="zCXyR9ZO4YI8tIfsWMdl-111" style="edgeStyle=orthogonalEdgeStyle;rounded=0;orthogonalLoop=1;jettySize=auto;html=1;endArrow=diamondThin;endFill=1;" edge="1" parent="1" source="zCXyR9ZO4YI8tIfsWMdl-73" target="zCXyR9ZO4YI8tIfsWMdl-4">
          <mxGeometry relative="1" as="geometry">
            <Array as="points">
              <mxPoint x="1930" y="910" />
              <mxPoint x="1930" y="910" />
            </Array>
          </mxGeometry>
        </mxCell>
        <mxCell id="zCXyR9ZO4YI8tIfsWMdl-137" style="edgeStyle=orthogonalEdgeStyle;rounded=0;orthogonalLoop=1;jettySize=auto;html=1;endArrow=diamondThin;endFill=1;" edge="1" parent="1" source="zCXyR9ZO4YI8tIfsWMdl-112" target="zCXyR9ZO4YI8tIfsWMdl-4">
          <mxGeometry relative="1" as="geometry">
            <Array as="points">
              <mxPoint x="1460" y="1009" />
              <mxPoint x="1460" y="1009" />
            </Array>
          </mxGeometry>
        </mxCell>
        <mxCell id="zCXyR9ZO4YI8tIfsWMdl-140" value="" style="group" vertex="1" connectable="0" parent="1">
          <mxGeometry x="1570" y="1290" width="1080" height="650" as="geometry" />
        </mxCell>
        <mxCell id="zCXyR9ZO4YI8tIfsWMdl-141" value="frame" style="shape=umlFrame;whiteSpace=wrap;html=1;pointerEvents=0;" vertex="1" parent="zCXyR9ZO4YI8tIfsWMdl-140">
          <mxGeometry x="93.88867924528303" width="986.111320754717" height="650" as="geometry" />
        </mxCell>
        <mxCell id="zCXyR9ZO4YI8tIfsWMdl-142" value="&lt;b&gt;&lt;i&gt;MessageBuilder&lt;/i&gt;&lt;/b&gt;" style="html=1;whiteSpace=wrap;" vertex="1" parent="zCXyR9ZO4YI8tIfsWMdl-140">
          <mxGeometry x="93.89" width="147.54" height="50" as="geometry" />
        </mxCell>
        <mxCell id="zCXyR9ZO4YI8tIfsWMdl-143" value="&lt;p style=&quot;margin:0px;margin-top:4px;text-align:center;&quot;&gt;&lt;i&gt;&amp;lt;&amp;lt;Interface&amp;gt;&amp;gt;&lt;/i&gt;&lt;br&gt;&lt;/p&gt;&lt;p style=&quot;margin:0px;margin-top:4px;text-align:center;&quot;&gt;&lt;i&gt;MessageBuilderInterface&lt;/i&gt;&lt;/p&gt;&lt;hr size=&quot;1&quot;&gt;&lt;p style=&quot;margin:0px;margin-left:4px;&quot;&gt;+ buildMessage(String weather) : void&lt;br&gt;+ buildAircraftBarcode() : String&lt;/p&gt;" style="verticalAlign=top;align=left;overflow=fill;fontSize=12;fontFamily=Helvetica;html=1;whiteSpace=wrap;rounded=0;fillColor=#f5f5f5;strokeColor=#666666;fontColor=#333333;movable=1;resizable=1;rotatable=1;deletable=1;editable=1;locked=0;connectable=1;" vertex="1" parent="zCXyR9ZO4YI8tIfsWMdl-140">
          <mxGeometry x="50.943396226415096" y="152.05357142857144" width="213.96226415094338" height="106.78571428571429" as="geometry" />
        </mxCell>
        <mxCell id="zCXyR9ZO4YI8tIfsWMdl-205" style="edgeStyle=orthogonalEdgeStyle;rounded=0;orthogonalLoop=1;jettySize=auto;html=1;dashed=1;dashPattern=12 12;endArrow=block;endFill=1;" edge="1" parent="zCXyR9ZO4YI8tIfsWMdl-140" source="zCXyR9ZO4YI8tIfsWMdl-183" target="zCXyR9ZO4YI8tIfsWMdl-143">
          <mxGeometry relative="1" as="geometry" />
        </mxCell>
        <mxCell id="zCXyR9ZO4YI8tIfsWMdl-183" value="AircraftMessageBuilder" style="swimlane;fontStyle=1;align=center;verticalAlign=top;childLayout=stackLayout;horizontal=1;startSize=26;horizontalStack=0;resizeParent=1;resizeParentMax=0;resizeLast=0;collapsible=1;marginBottom=0;whiteSpace=wrap;html=1;rounded=1;fillColor=#dae8fc;strokeColor=#6c8ebf;movable=1;resizable=1;rotatable=1;deletable=1;editable=1;locked=0;connectable=1;" vertex="1" parent="zCXyR9ZO4YI8tIfsWMdl-140">
          <mxGeometry x="309.99905660377357" y="142.54" width="346.4150943396226" height="186.17857142857144" as="geometry" />
        </mxCell>
        <mxCell id="zCXyR9ZO4YI8tIfsWMdl-190" value="# barcodeBuilder : AircraftBarcodeBuilder" style="text;strokeColor=none;fillColor=none;align=left;verticalAlign=top;spacingLeft=4;spacingRight=4;overflow=hidden;rotatable=0;points=[[0,0.5],[1,0.5]];portConstraint=eastwest;whiteSpace=wrap;html=1;" vertex="1" parent="zCXyR9ZO4YI8tIfsWMdl-183">
          <mxGeometry y="26" width="346.4150943396226" height="30.17857142857143" as="geometry" />
        </mxCell>
        <mxCell id="zCXyR9ZO4YI8tIfsWMdl-231" value="# coordinatesMessageBuilder : CoordinatesMessageBuilder" style="text;strokeColor=none;fillColor=none;align=left;verticalAlign=top;spacingLeft=4;spacingRight=4;overflow=hidden;rotatable=0;points=[[0,0.5],[1,0.5]];portConstraint=eastwest;whiteSpace=wrap;html=1;" vertex="1" parent="zCXyR9ZO4YI8tIfsWMdl-183">
          <mxGeometry y="56.17857142857143" width="346.4150943396226" height="30.17857142857143" as="geometry" />
        </mxCell>
        <mxCell id="zCXyR9ZO4YI8tIfsWMdl-191" value="" style="line;strokeWidth=1;fillColor=none;align=left;verticalAlign=middle;spacingTop=-1;spacingLeft=3;spacingRight=3;rotatable=0;labelPosition=right;points=[];portConstraint=eastwest;strokeColor=inherit;" vertex="1" parent="zCXyR9ZO4YI8tIfsWMdl-183">
          <mxGeometry y="86.35714285714286" width="346.4150943396226" height="9.285714285714286" as="geometry" />
        </mxCell>
        <mxCell id="zCXyR9ZO4YI8tIfsWMdl-198" value="# &lt;u&gt;buildReportMessageByWeather(weather : String)&lt;/u&gt; : String" style="text;strokeColor=none;fillColor=none;align=left;verticalAlign=top;spacingLeft=4;spacingRight=4;overflow=hidden;rotatable=0;points=[[0,0.5],[1,0.5]];portConstraint=eastwest;whiteSpace=wrap;html=1;" vertex="1" parent="zCXyR9ZO4YI8tIfsWMdl-183">
          <mxGeometry y="95.64285714285715" width="346.4150943396226" height="30.17857142857143" as="geometry" />
        </mxCell>
        <mxCell id="zCXyR9ZO4YI8tIfsWMdl-232" value="+&amp;nbsp;&lt;u&gt;buildMessage(weather : String)&lt;/u&gt;&amp;nbsp;: String" style="text;strokeColor=none;fillColor=none;align=left;verticalAlign=top;spacingLeft=4;spacingRight=4;overflow=hidden;rotatable=0;points=[[0,0.5],[1,0.5]];portConstraint=eastwest;whiteSpace=wrap;html=1;" vertex="1" parent="zCXyR9ZO4YI8tIfsWMdl-183">
          <mxGeometry y="125.82142857142858" width="346.4150943396226" height="30.17857142857143" as="geometry" />
        </mxCell>
        <mxCell id="zCXyR9ZO4YI8tIfsWMdl-233" value="+ buildAircraftBarcode() : String" style="text;strokeColor=none;fillColor=none;align=left;verticalAlign=top;spacingLeft=4;spacingRight=4;overflow=hidden;rotatable=0;points=[[0,0.5],[1,0.5]];portConstraint=eastwest;whiteSpace=wrap;html=1;" vertex="1" parent="zCXyR9ZO4YI8tIfsWMdl-183">
          <mxGeometry y="156" width="346.4150943396226" height="30.17857142857143" as="geometry" />
        </mxCell>
        <mxCell id="zCXyR9ZO4YI8tIfsWMdl-222" style="edgeStyle=orthogonalEdgeStyle;rounded=0;orthogonalLoop=1;jettySize=auto;html=1;endArrow=diamondThin;endFill=1;" edge="1" parent="zCXyR9ZO4YI8tIfsWMdl-140" source="zCXyR9ZO4YI8tIfsWMdl-201" target="zCXyR9ZO4YI8tIfsWMdl-183">
          <mxGeometry relative="1" as="geometry" />
        </mxCell>
        <mxCell id="zCXyR9ZO4YI8tIfsWMdl-201" value="AircraftBarcodeBuilder" style="swimlane;fontStyle=1;align=center;verticalAlign=top;childLayout=stackLayout;horizontal=1;startSize=26;horizontalStack=0;resizeParent=1;resizeParentMax=0;resizeLast=0;collapsible=1;marginBottom=0;whiteSpace=wrap;html=1;rounded=1;fillColor=#d5e8d4;strokeColor=#82b366;movable=1;resizable=1;rotatable=1;deletable=1;editable=1;locked=0;connectable=1;" vertex="1" parent="zCXyR9ZO4YI8tIfsWMdl-140">
          <mxGeometry x="703.0188679245283" y="22.05357142857143" width="346.4150943396226" height="125.82142857142858" as="geometry" />
        </mxCell>
        <mxCell id="zCXyR9ZO4YI8tIfsWMdl-202" value="- code : String" style="text;strokeColor=none;fillColor=none;align=left;verticalAlign=top;spacingLeft=4;spacingRight=4;overflow=hidden;rotatable=0;points=[[0,0.5],[1,0.5]];portConstraint=eastwest;whiteSpace=wrap;html=1;" vertex="1" parent="zCXyR9ZO4YI8tIfsWMdl-201">
          <mxGeometry y="26" width="346.4150943396226" height="30.17857142857143" as="geometry" />
        </mxCell>
        <mxCell id="zCXyR9ZO4YI8tIfsWMdl-203" value="" style="line;strokeWidth=1;fillColor=none;align=left;verticalAlign=middle;spacingTop=-1;spacingLeft=3;spacingRight=3;rotatable=0;labelPosition=right;points=[];portConstraint=eastwest;strokeColor=inherit;" vertex="1" parent="zCXyR9ZO4YI8tIfsWMdl-201">
          <mxGeometry y="56.17857142857143" width="346.4150943396226" height="9.285714285714286" as="geometry" />
        </mxCell>
        <mxCell id="zCXyR9ZO4YI8tIfsWMdl-204" value="+ AircraftBarcodeBuilder(type : String, name : String, id : long)" style="text;strokeColor=none;fillColor=none;align=left;verticalAlign=top;spacingLeft=4;spacingRight=4;overflow=hidden;rotatable=0;points=[[0,0.5],[1,0.5]];portConstraint=eastwest;whiteSpace=wrap;html=1;" vertex="1" parent="zCXyR9ZO4YI8tIfsWMdl-201">
          <mxGeometry y="65.46428571428572" width="346.4150943396226" height="30.17857142857143" as="geometry" />
        </mxCell>
        <mxCell id="zCXyR9ZO4YI8tIfsWMdl-221" value="+ getCode() : void&amp;nbsp;" style="text;strokeColor=none;fillColor=none;align=left;verticalAlign=top;spacingLeft=4;spacingRight=4;overflow=hidden;rotatable=0;points=[[0,0.5],[1,0.5]];portConstraint=eastwest;whiteSpace=wrap;html=1;" vertex="1" parent="zCXyR9ZO4YI8tIfsWMdl-201">
          <mxGeometry y="95.64285714285715" width="346.4150943396226" height="30.17857142857143" as="geometry" />
        </mxCell>
        <mxCell id="zCXyR9ZO4YI8tIfsWMdl-230" style="edgeStyle=orthogonalEdgeStyle;rounded=0;orthogonalLoop=1;jettySize=auto;html=1;endArrow=diamondThin;endFill=1;" edge="1" parent="zCXyR9ZO4YI8tIfsWMdl-140" source="zCXyR9ZO4YI8tIfsWMdl-223" target="zCXyR9ZO4YI8tIfsWMdl-183">
          <mxGeometry relative="1" as="geometry" />
        </mxCell>
        <mxCell id="zCXyR9ZO4YI8tIfsWMdl-223" value="CoordinatesMessageBuilder" style="swimlane;fontStyle=1;align=center;verticalAlign=top;childLayout=stackLayout;horizontal=1;startSize=26;horizontalStack=0;resizeParent=1;resizeParentMax=0;resizeLast=0;collapsible=1;marginBottom=0;whiteSpace=wrap;html=1;rounded=1;fillColor=#d5e8d4;strokeColor=#82b366;movable=1;resizable=1;rotatable=1;deletable=1;editable=1;locked=0;connectable=1;" vertex="1" parent="zCXyR9ZO4YI8tIfsWMdl-140">
          <mxGeometry x="703.0188679245283" y="180.00357142857138" width="346.4150943396226" height="186.17857142857144" as="geometry" />
        </mxCell>
        <mxCell id="zCXyR9ZO4YI8tIfsWMdl-224" value="- code : String" style="text;strokeColor=none;fillColor=none;align=left;verticalAlign=top;spacingLeft=4;spacingRight=4;overflow=hidden;rotatable=0;points=[[0,0.5],[1,0.5]];portConstraint=eastwest;whiteSpace=wrap;html=1;" vertex="1" parent="zCXyR9ZO4YI8tIfsWMdl-223">
          <mxGeometry y="26" width="346.4150943396226" height="30.17857142857143" as="geometry" />
        </mxCell>
        <mxCell id="zCXyR9ZO4YI8tIfsWMdl-225" value="" style="line;strokeWidth=1;fillColor=none;align=left;verticalAlign=middle;spacingTop=-1;spacingLeft=3;spacingRight=3;rotatable=0;labelPosition=right;points=[];portConstraint=eastwest;strokeColor=inherit;" vertex="1" parent="zCXyR9ZO4YI8tIfsWMdl-223">
          <mxGeometry y="56.17857142857143" width="346.4150943396226" height="9.285714285714286" as="geometry" />
        </mxCell>
        <mxCell id="zCXyR9ZO4YI8tIfsWMdl-226" value="+ CoordinatesMessageBuilder(coordinates : Coordinates)" style="text;strokeColor=none;fillColor=none;align=left;verticalAlign=top;spacingLeft=4;spacingRight=4;overflow=hidden;rotatable=0;points=[[0,0.5],[1,0.5]];portConstraint=eastwest;whiteSpace=wrap;html=1;" vertex="1" parent="zCXyR9ZO4YI8tIfsWMdl-223">
          <mxGeometry y="65.46428571428572" width="346.4150943396226" height="30.17857142857143" as="geometry" />
        </mxCell>
        <mxCell id="zCXyR9ZO4YI8tIfsWMdl-227" value="+ setCode(coordinates : Coordinates) : void" style="text;strokeColor=none;fillColor=none;align=left;verticalAlign=top;spacingLeft=4;spacingRight=4;overflow=hidden;rotatable=0;points=[[0,0.5],[1,0.5]];portConstraint=eastwest;whiteSpace=wrap;html=1;" vertex="1" parent="zCXyR9ZO4YI8tIfsWMdl-223">
          <mxGeometry y="95.64285714285715" width="346.4150943396226" height="30.17857142857143" as="geometry" />
        </mxCell>
        <mxCell id="zCXyR9ZO4YI8tIfsWMdl-228" value="+ getCode() : void&amp;nbsp;" style="text;strokeColor=none;fillColor=none;align=left;verticalAlign=top;spacingLeft=4;spacingRight=4;overflow=hidden;rotatable=0;points=[[0,0.5],[1,0.5]];portConstraint=eastwest;whiteSpace=wrap;html=1;" vertex="1" parent="zCXyR9ZO4YI8tIfsWMdl-223">
          <mxGeometry y="125.82142857142858" width="346.4150943396226" height="30.17857142857143" as="geometry" />
        </mxCell>
        <mxCell id="zCXyR9ZO4YI8tIfsWMdl-229" value="+ buildCoordinatesForm(coordinates : Coordinates)" style="text;strokeColor=none;fillColor=none;align=left;verticalAlign=top;spacingLeft=4;spacingRight=4;overflow=hidden;rotatable=0;points=[[0,0.5],[1,0.5]];portConstraint=eastwest;whiteSpace=wrap;html=1;" vertex="1" parent="zCXyR9ZO4YI8tIfsWMdl-223">
          <mxGeometry y="156" width="346.4150943396226" height="30.17857142857143" as="geometry" />
        </mxCell>
        <mxCell id="zCXyR9ZO4YI8tIfsWMdl-250" style="edgeStyle=orthogonalEdgeStyle;rounded=0;orthogonalLoop=1;jettySize=auto;html=1;endArrow=block;endFill=0;" edge="1" parent="zCXyR9ZO4YI8tIfsWMdl-140" source="zCXyR9ZO4YI8tIfsWMdl-234" target="zCXyR9ZO4YI8tIfsWMdl-183">
          <mxGeometry relative="1" as="geometry" />
        </mxCell>
        <mxCell id="zCXyR9ZO4YI8tIfsWMdl-234" value="BaloonMessageBuilder" style="swimlane;fontStyle=1;align=center;verticalAlign=top;childLayout=stackLayout;horizontal=1;startSize=26;horizontalStack=0;resizeParent=1;resizeParentMax=0;resizeLast=0;collapsible=1;marginBottom=0;whiteSpace=wrap;html=1;rounded=1;fillColor=#d5e8d4;strokeColor=#82b366;" vertex="1" parent="zCXyR9ZO4YI8tIfsWMdl-140">
          <mxGeometry x="110" y="450" width="290" height="112" as="geometry" />
        </mxCell>
        <mxCell id="zCXyR9ZO4YI8tIfsWMdl-235" value="" style="line;strokeWidth=1;fillColor=none;align=left;verticalAlign=middle;spacingTop=-1;spacingLeft=3;spacingRight=3;rotatable=0;labelPosition=right;points=[];portConstraint=eastwest;strokeColor=inherit;" vertex="1" parent="zCXyR9ZO4YI8tIfsWMdl-234">
          <mxGeometry y="26" width="290" height="8" as="geometry" />
        </mxCell>
        <mxCell id="zCXyR9ZO4YI8tIfsWMdl-236" value="+ BaloonMessageBuilder()" style="text;strokeColor=none;fillColor=none;align=left;verticalAlign=top;spacingLeft=4;spacingRight=4;overflow=hidden;rotatable=0;points=[[0,0.5],[1,0.5]];portConstraint=eastwest;whiteSpace=wrap;html=1;" vertex="1" parent="zCXyR9ZO4YI8tIfsWMdl-234">
          <mxGeometry y="34" width="290" height="26" as="geometry" />
        </mxCell>
        <mxCell id="zCXyR9ZO4YI8tIfsWMdl-238" value="# buildReportMessageByWeather(weather : String)" style="text;strokeColor=none;fillColor=none;align=left;verticalAlign=top;spacingLeft=4;spacingRight=4;overflow=hidden;rotatable=0;points=[[0,0.5],[1,0.5]];portConstraint=eastwest;whiteSpace=wrap;html=1;" vertex="1" parent="zCXyR9ZO4YI8tIfsWMdl-234">
          <mxGeometry y="60" width="290" height="26" as="geometry" />
        </mxCell>
        <mxCell id="zCXyR9ZO4YI8tIfsWMdl-239" value="+ buildMessage(weather : String) : String" style="text;strokeColor=none;fillColor=none;align=left;verticalAlign=top;spacingLeft=4;spacingRight=4;overflow=hidden;rotatable=0;points=[[0,0.5],[1,0.5]];portConstraint=eastwest;whiteSpace=wrap;html=1;" vertex="1" parent="zCXyR9ZO4YI8tIfsWMdl-234">
          <mxGeometry y="86" width="290" height="26" as="geometry" />
        </mxCell>
        <mxCell id="zCXyR9ZO4YI8tIfsWMdl-251" style="edgeStyle=orthogonalEdgeStyle;rounded=0;orthogonalLoop=1;jettySize=auto;html=1;endArrow=block;endFill=0;" edge="1" parent="zCXyR9ZO4YI8tIfsWMdl-140" source="zCXyR9ZO4YI8tIfsWMdl-240" target="zCXyR9ZO4YI8tIfsWMdl-183">
          <mxGeometry relative="1" as="geometry" />
        </mxCell>
        <mxCell id="zCXyR9ZO4YI8tIfsWMdl-240" value="HelicopterMessageBuilder" style="swimlane;fontStyle=1;align=center;verticalAlign=top;childLayout=stackLayout;horizontal=1;startSize=26;horizontalStack=0;resizeParent=1;resizeParentMax=0;resizeLast=0;collapsible=1;marginBottom=0;whiteSpace=wrap;html=1;rounded=1;fillColor=#d5e8d4;strokeColor=#82b366;" vertex="1" parent="zCXyR9ZO4YI8tIfsWMdl-140">
          <mxGeometry x="440" y="450" width="290" height="112" as="geometry" />
        </mxCell>
        <mxCell id="zCXyR9ZO4YI8tIfsWMdl-241" value="" style="line;strokeWidth=1;fillColor=none;align=left;verticalAlign=middle;spacingTop=-1;spacingLeft=3;spacingRight=3;rotatable=0;labelPosition=right;points=[];portConstraint=eastwest;strokeColor=inherit;" vertex="1" parent="zCXyR9ZO4YI8tIfsWMdl-240">
          <mxGeometry y="26" width="290" height="8" as="geometry" />
        </mxCell>
        <mxCell id="zCXyR9ZO4YI8tIfsWMdl-242" value="+ HelicopterMessageBuilder()" style="text;strokeColor=none;fillColor=none;align=left;verticalAlign=top;spacingLeft=4;spacingRight=4;overflow=hidden;rotatable=0;points=[[0,0.5],[1,0.5]];portConstraint=eastwest;whiteSpace=wrap;html=1;" vertex="1" parent="zCXyR9ZO4YI8tIfsWMdl-240">
          <mxGeometry y="34" width="290" height="26" as="geometry" />
        </mxCell>
        <mxCell id="zCXyR9ZO4YI8tIfsWMdl-243" value="# buildReportMessageByWeather(weather : String)" style="text;strokeColor=none;fillColor=none;align=left;verticalAlign=top;spacingLeft=4;spacingRight=4;overflow=hidden;rotatable=0;points=[[0,0.5],[1,0.5]];portConstraint=eastwest;whiteSpace=wrap;html=1;" vertex="1" parent="zCXyR9ZO4YI8tIfsWMdl-240">
          <mxGeometry y="60" width="290" height="26" as="geometry" />
        </mxCell>
        <mxCell id="zCXyR9ZO4YI8tIfsWMdl-244" value="+ buildMessage(weather : String) : String" style="text;strokeColor=none;fillColor=none;align=left;verticalAlign=top;spacingLeft=4;spacingRight=4;overflow=hidden;rotatable=0;points=[[0,0.5],[1,0.5]];portConstraint=eastwest;whiteSpace=wrap;html=1;" vertex="1" parent="zCXyR9ZO4YI8tIfsWMdl-240">
          <mxGeometry y="86" width="290" height="26" as="geometry" />
        </mxCell>
        <mxCell id="zCXyR9ZO4YI8tIfsWMdl-252" style="edgeStyle=orthogonalEdgeStyle;rounded=0;orthogonalLoop=1;jettySize=auto;html=1;endArrow=block;endFill=0;" edge="1" parent="zCXyR9ZO4YI8tIfsWMdl-140" source="zCXyR9ZO4YI8tIfsWMdl-245" target="zCXyR9ZO4YI8tIfsWMdl-183">
          <mxGeometry relative="1" as="geometry">
            <Array as="points">
              <mxPoint x="904" y="390" />
              <mxPoint x="483" y="390" />
            </Array>
          </mxGeometry>
        </mxCell>
        <mxCell id="zCXyR9ZO4YI8tIfsWMdl-245" value="JetPlaneMessageBuilder" style="swimlane;fontStyle=1;align=center;verticalAlign=top;childLayout=stackLayout;horizontal=1;startSize=26;horizontalStack=0;resizeParent=1;resizeParentMax=0;resizeLast=0;collapsible=1;marginBottom=0;whiteSpace=wrap;html=1;rounded=1;fillColor=#d5e8d4;strokeColor=#82b366;" vertex="1" parent="zCXyR9ZO4YI8tIfsWMdl-140">
          <mxGeometry x="759.4299999999998" y="450" width="290" height="112" as="geometry" />
        </mxCell>
        <mxCell id="zCXyR9ZO4YI8tIfsWMdl-246" value="" style="line;strokeWidth=1;fillColor=none;align=left;verticalAlign=middle;spacingTop=-1;spacingLeft=3;spacingRight=3;rotatable=0;labelPosition=right;points=[];portConstraint=eastwest;strokeColor=inherit;" vertex="1" parent="zCXyR9ZO4YI8tIfsWMdl-245">
          <mxGeometry y="26" width="290" height="8" as="geometry" />
        </mxCell>
        <mxCell id="zCXyR9ZO4YI8tIfsWMdl-247" value="+ JetPlaneMessageBuilder()" style="text;strokeColor=none;fillColor=none;align=left;verticalAlign=top;spacingLeft=4;spacingRight=4;overflow=hidden;rotatable=0;points=[[0,0.5],[1,0.5]];portConstraint=eastwest;whiteSpace=wrap;html=1;" vertex="1" parent="zCXyR9ZO4YI8tIfsWMdl-245">
          <mxGeometry y="34" width="290" height="26" as="geometry" />
        </mxCell>
        <mxCell id="zCXyR9ZO4YI8tIfsWMdl-248" value="# buildReportMessageByWeather(weather : String)" style="text;strokeColor=none;fillColor=none;align=left;verticalAlign=top;spacingLeft=4;spacingRight=4;overflow=hidden;rotatable=0;points=[[0,0.5],[1,0.5]];portConstraint=eastwest;whiteSpace=wrap;html=1;" vertex="1" parent="zCXyR9ZO4YI8tIfsWMdl-245">
          <mxGeometry y="60" width="290" height="26" as="geometry" />
        </mxCell>
        <mxCell id="zCXyR9ZO4YI8tIfsWMdl-249" value="+ buildMessage(weather : String) : String" style="text;strokeColor=none;fillColor=none;align=left;verticalAlign=top;spacingLeft=4;spacingRight=4;overflow=hidden;rotatable=0;points=[[0,0.5],[1,0.5]];portConstraint=eastwest;whiteSpace=wrap;html=1;" vertex="1" parent="zCXyR9ZO4YI8tIfsWMdl-245">
          <mxGeometry y="86" width="290" height="26" as="geometry" />
        </mxCell>
        <mxCell id="zCXyR9ZO4YI8tIfsWMdl-169" style="edgeStyle=orthogonalEdgeStyle;rounded=0;orthogonalLoop=1;jettySize=auto;html=1;endArrow=diamondThin;endFill=1;" edge="1" parent="1" source="zCXyR9ZO4YI8tIfsWMdl-143" target="zCXyR9ZO4YI8tIfsWMdl-4">
          <mxGeometry relative="1" as="geometry">
            <Array as="points">
              <mxPoint x="1540" y="1454" />
              <mxPoint x="1540" y="1080" />
            </Array>
          </mxGeometry>
        </mxCell>
        <mxCell id="zCXyR9ZO4YI8tIfsWMdl-311" style="edgeStyle=orthogonalEdgeStyle;rounded=0;orthogonalLoop=1;jettySize=auto;html=1;dashed=1;dashPattern=8 8;endArrow=open;endFill=0;" edge="1" parent="1" source="zCXyR9ZO4YI8tIfsWMdl-170" target="zCXyR9ZO4YI8tIfsWMdl-262">
          <mxGeometry relative="1" as="geometry">
            <Array as="points">
              <mxPoint x="1370" y="602" />
              <mxPoint x="1370" y="337" />
            </Array>
          </mxGeometry>
        </mxCell>
        <mxCell id="zCXyR9ZO4YI8tIfsWMdl-170" value="AircraftFactory" style="swimlane;fontStyle=1;align=center;verticalAlign=top;childLayout=stackLayout;horizontal=1;startSize=26;horizontalStack=0;resizeParent=1;resizeParentMax=0;resizeLast=0;collapsible=1;marginBottom=0;whiteSpace=wrap;html=1;rounded=1;fillColor=#d5e8d4;strokeColor=#82b366;movable=1;resizable=1;rotatable=1;deletable=1;editable=1;locked=0;connectable=1;" vertex="1" parent="1">
          <mxGeometry x="1560" y="520" width="460" height="164" as="geometry" />
        </mxCell>
        <mxCell id="zCXyR9ZO4YI8tIfsWMdl-174" value="- permittedAircraftTypes : ArrayList&amp;lt;String&amp;gt;" style="text;strokeColor=none;fillColor=none;align=left;verticalAlign=top;spacingLeft=4;spacingRight=4;overflow=hidden;rotatable=0;points=[[0,0.5],[1,0.5]];portConstraint=eastwest;whiteSpace=wrap;html=1;" vertex="1" parent="zCXyR9ZO4YI8tIfsWMdl-170">
          <mxGeometry y="26" width="460" height="26" as="geometry" />
        </mxCell>
        <mxCell id="zCXyR9ZO4YI8tIfsWMdl-175" value="" style="line;strokeWidth=1;fillColor=none;align=left;verticalAlign=middle;spacingTop=-1;spacingLeft=3;spacingRight=3;rotatable=0;labelPosition=right;points=[];portConstraint=eastwest;strokeColor=inherit;" vertex="1" parent="zCXyR9ZO4YI8tIfsWMdl-170">
          <mxGeometry y="52" width="460" height="8" as="geometry" />
        </mxCell>
        <mxCell id="zCXyR9ZO4YI8tIfsWMdl-181" value="+ AircraftFactory()" style="text;strokeColor=none;fillColor=none;align=left;verticalAlign=top;spacingLeft=4;spacingRight=4;overflow=hidden;rotatable=0;points=[[0,0.5],[1,0.5]];portConstraint=eastwest;whiteSpace=wrap;html=1;" vertex="1" parent="zCXyR9ZO4YI8tIfsWMdl-170">
          <mxGeometry y="60" width="460" height="26" as="geometry" />
        </mxCell>
        <mxCell id="zCXyR9ZO4YI8tIfsWMdl-208" value="+ newAircraft(type : String, name : String, longitude : int, latitude : int, height : int)" style="text;strokeColor=none;fillColor=none;align=left;verticalAlign=top;spacingLeft=4;spacingRight=4;overflow=hidden;rotatable=0;points=[[0,0.5],[1,0.5]];portConstraint=eastwest;whiteSpace=wrap;html=1;" vertex="1" parent="zCXyR9ZO4YI8tIfsWMdl-170">
          <mxGeometry y="86" width="460" height="26" as="geometry" />
        </mxCell>
        <mxCell id="zCXyR9ZO4YI8tIfsWMdl-182" value="- isValidAircraftType(type : String) : Boolean" style="text;strokeColor=none;fillColor=none;align=left;verticalAlign=top;spacingLeft=4;spacingRight=4;overflow=hidden;rotatable=0;points=[[0,0.5],[1,0.5]];portConstraint=eastwest;whiteSpace=wrap;html=1;" vertex="1" parent="zCXyR9ZO4YI8tIfsWMdl-170">
          <mxGeometry y="112" width="460" height="26" as="geometry" />
        </mxCell>
        <mxCell id="zCXyR9ZO4YI8tIfsWMdl-199" value="- initPermittedAircraftTypes() : void" style="text;strokeColor=none;fillColor=none;align=left;verticalAlign=top;spacingLeft=4;spacingRight=4;overflow=hidden;rotatable=0;points=[[0,0.5],[1,0.5]];portConstraint=eastwest;whiteSpace=wrap;html=1;" vertex="1" parent="zCXyR9ZO4YI8tIfsWMdl-170">
          <mxGeometry y="138" width="460" height="26" as="geometry" />
        </mxCell>
        <mxCell id="zCXyR9ZO4YI8tIfsWMdl-112" value="Coordinates" style="swimlane;fontStyle=1;align=center;verticalAlign=top;childLayout=stackLayout;horizontal=1;startSize=26;horizontalStack=0;resizeParent=1;resizeParentMax=0;resizeLast=0;collapsible=1;marginBottom=0;whiteSpace=wrap;html=1;rounded=1;fillColor=#d5e8d4;strokeColor=#82b366;movable=1;resizable=1;rotatable=1;deletable=1;editable=1;locked=0;connectable=1;" vertex="1" parent="1">
          <mxGeometry x="1580" y="940" width="300" height="320" as="geometry" />
        </mxCell>
        <mxCell id="zCXyR9ZO4YI8tIfsWMdl-118" value="- longitude : int" style="text;strokeColor=none;fillColor=none;align=left;verticalAlign=top;spacingLeft=4;spacingRight=4;overflow=hidden;rotatable=0;points=[[0,0.5],[1,0.5]];portConstraint=eastwest;whiteSpace=wrap;html=1;" vertex="1" parent="zCXyR9ZO4YI8tIfsWMdl-112">
          <mxGeometry y="26" width="300" height="26" as="geometry" />
        </mxCell>
        <mxCell id="zCXyR9ZO4YI8tIfsWMdl-131" value="- latitude : int" style="text;strokeColor=none;fillColor=none;align=left;verticalAlign=top;spacingLeft=4;spacingRight=4;overflow=hidden;rotatable=0;points=[[0,0.5],[1,0.5]];portConstraint=eastwest;whiteSpace=wrap;html=1;" vertex="1" parent="zCXyR9ZO4YI8tIfsWMdl-112">
          <mxGeometry y="52" width="300" height="26" as="geometry" />
        </mxCell>
        <mxCell id="zCXyR9ZO4YI8tIfsWMdl-132" value="- height : int" style="text;strokeColor=none;fillColor=none;align=left;verticalAlign=top;spacingLeft=4;spacingRight=4;overflow=hidden;rotatable=0;points=[[0,0.5],[1,0.5]];portConstraint=eastwest;whiteSpace=wrap;html=1;" vertex="1" parent="zCXyR9ZO4YI8tIfsWMdl-112">
          <mxGeometry y="78" width="300" height="26" as="geometry" />
        </mxCell>
        <mxCell id="zCXyR9ZO4YI8tIfsWMdl-133" value="- heightLimit : int" style="text;strokeColor=none;fillColor=none;align=left;verticalAlign=top;spacingLeft=4;spacingRight=4;overflow=hidden;rotatable=0;points=[[0,0.5],[1,0.5]];portConstraint=eastwest;whiteSpace=wrap;html=1;" vertex="1" parent="zCXyR9ZO4YI8tIfsWMdl-112">
          <mxGeometry y="104" width="300" height="26" as="geometry" />
        </mxCell>
        <mxCell id="zCXyR9ZO4YI8tIfsWMdl-120" value="" style="line;strokeWidth=1;fillColor=none;align=left;verticalAlign=middle;spacingTop=-1;spacingLeft=3;spacingRight=3;rotatable=0;labelPosition=right;points=[];portConstraint=eastwest;strokeColor=inherit;" vertex="1" parent="zCXyR9ZO4YI8tIfsWMdl-112">
          <mxGeometry y="130" width="300" height="8" as="geometry" />
        </mxCell>
        <mxCell id="zCXyR9ZO4YI8tIfsWMdl-122" value="+ Coordinate(longitude : int, latitude : int, height : int)" style="text;strokeColor=none;fillColor=none;align=left;verticalAlign=top;spacingLeft=4;spacingRight=4;overflow=hidden;rotatable=0;points=[[0,0.5],[1,0.5]];portConstraint=eastwest;whiteSpace=wrap;html=1;" vertex="1" parent="zCXyR9ZO4YI8tIfsWMdl-112">
          <mxGeometry y="138" width="300" height="26" as="geometry" />
        </mxCell>
        <mxCell id="zCXyR9ZO4YI8tIfsWMdl-215" value="+ setLongitute(longitude : int) : void" style="text;strokeColor=none;fillColor=none;align=left;verticalAlign=top;spacingLeft=4;spacingRight=4;overflow=hidden;rotatable=0;points=[[0,0.5],[1,0.5]];portConstraint=eastwest;whiteSpace=wrap;html=1;" vertex="1" parent="zCXyR9ZO4YI8tIfsWMdl-112">
          <mxGeometry y="164" width="300" height="26" as="geometry" />
        </mxCell>
        <mxCell id="zCXyR9ZO4YI8tIfsWMdl-135" value="+ setLatitude(latitude : int) : void" style="text;strokeColor=none;fillColor=none;align=left;verticalAlign=top;spacingLeft=4;spacingRight=4;overflow=hidden;rotatable=0;points=[[0,0.5],[1,0.5]];portConstraint=eastwest;whiteSpace=wrap;html=1;" vertex="1" parent="zCXyR9ZO4YI8tIfsWMdl-112">
          <mxGeometry y="190" width="300" height="26" as="geometry" />
        </mxCell>
        <mxCell id="zCXyR9ZO4YI8tIfsWMdl-136" value="+ setHeight(height : int) : void" style="text;strokeColor=none;fillColor=none;align=left;verticalAlign=top;spacingLeft=4;spacingRight=4;overflow=hidden;rotatable=0;points=[[0,0.5],[1,0.5]];portConstraint=eastwest;whiteSpace=wrap;html=1;" vertex="1" parent="zCXyR9ZO4YI8tIfsWMdl-112">
          <mxGeometry y="216" width="300" height="26" as="geometry" />
        </mxCell>
        <mxCell id="zCXyR9ZO4YI8tIfsWMdl-134" value="+ getLongitute() : int" style="text;strokeColor=none;fillColor=none;align=left;verticalAlign=top;spacingLeft=4;spacingRight=4;overflow=hidden;rotatable=0;points=[[0,0.5],[1,0.5]];portConstraint=eastwest;whiteSpace=wrap;html=1;" vertex="1" parent="zCXyR9ZO4YI8tIfsWMdl-112">
          <mxGeometry y="242" width="300" height="26" as="geometry" />
        </mxCell>
        <mxCell id="zCXyR9ZO4YI8tIfsWMdl-123" value="+ getLatitude() : int" style="text;strokeColor=none;fillColor=none;align=left;verticalAlign=top;spacingLeft=4;spacingRight=4;overflow=hidden;rotatable=0;points=[[0,0.5],[1,0.5]];portConstraint=eastwest;whiteSpace=wrap;html=1;" vertex="1" parent="zCXyR9ZO4YI8tIfsWMdl-112">
          <mxGeometry y="268" width="300" height="26" as="geometry" />
        </mxCell>
        <mxCell id="zCXyR9ZO4YI8tIfsWMdl-124" value="+ getHeight() : int" style="text;strokeColor=none;fillColor=none;align=left;verticalAlign=top;spacingLeft=4;spacingRight=4;overflow=hidden;rotatable=0;points=[[0,0.5],[1,0.5]];portConstraint=eastwest;whiteSpace=wrap;html=1;" vertex="1" parent="zCXyR9ZO4YI8tIfsWMdl-112">
          <mxGeometry y="294" width="300" height="26" as="geometry" />
        </mxCell>
        <mxCell id="zCXyR9ZO4YI8tIfsWMdl-310" style="edgeStyle=orthogonalEdgeStyle;rounded=0;orthogonalLoop=1;jettySize=auto;html=1;dashed=1;dashPattern=12 12;endArrow=open;endFill=0;" edge="1" parent="1" source="zCXyR9ZO4YI8tIfsWMdl-262" target="zCXyR9ZO4YI8tIfsWMdl-303">
          <mxGeometry relative="1" as="geometry" />
        </mxCell>
        <mxCell id="zCXyR9ZO4YI8tIfsWMdl-262" value="Simulator" style="swimlane;fontStyle=1;align=center;verticalAlign=top;childLayout=stackLayout;horizontal=1;startSize=26;horizontalStack=0;resizeParent=1;resizeParentMax=0;resizeLast=0;collapsible=1;marginBottom=0;whiteSpace=wrap;html=1;rounded=1;fillColor=#d5e8d4;strokeColor=#82b366;movable=1;resizable=1;rotatable=1;deletable=1;editable=1;locked=0;connectable=1;" vertex="1" parent="1">
          <mxGeometry x="896.7890566037736" y="243.46" width="346.4150943396226" height="216.3571428571429" as="geometry" />
        </mxCell>
        <mxCell id="zCXyR9ZO4YI8tIfsWMdl-263" value="- metaData : SimulationMetaData" style="text;strokeColor=none;fillColor=none;align=left;verticalAlign=top;spacingLeft=4;spacingRight=4;overflow=hidden;rotatable=0;points=[[0,0.5],[1,0.5]];portConstraint=eastwest;whiteSpace=wrap;html=1;" vertex="1" parent="zCXyR9ZO4YI8tIfsWMdl-262">
          <mxGeometry y="26" width="346.4150943396226" height="30.17857142857143" as="geometry" />
        </mxCell>
        <mxCell id="zCXyR9ZO4YI8tIfsWMdl-264" value="- parser : ParserInterface" style="text;strokeColor=none;fillColor=none;align=left;verticalAlign=top;spacingLeft=4;spacingRight=4;overflow=hidden;rotatable=0;points=[[0,0.5],[1,0.5]];portConstraint=eastwest;whiteSpace=wrap;html=1;" vertex="1" parent="zCXyR9ZO4YI8tIfsWMdl-262">
          <mxGeometry y="56.17857142857143" width="346.4150943396226" height="30.17857142857143" as="geometry" />
        </mxCell>
        <mxCell id="zCXyR9ZO4YI8tIfsWMdl-313" value="- parsedData : ParsedData" style="text;strokeColor=none;fillColor=none;align=left;verticalAlign=top;spacingLeft=4;spacingRight=4;overflow=hidden;rotatable=0;points=[[0,0.5],[1,0.5]];portConstraint=eastwest;whiteSpace=wrap;html=1;" vertex="1" parent="zCXyR9ZO4YI8tIfsWMdl-262">
          <mxGeometry y="86.35714285714286" width="346.4150943396226" height="30.17857142857143" as="geometry" />
        </mxCell>
        <mxCell id="zCXyR9ZO4YI8tIfsWMdl-265" value="" style="line;strokeWidth=1;fillColor=none;align=left;verticalAlign=middle;spacingTop=-1;spacingLeft=3;spacingRight=3;rotatable=0;labelPosition=right;points=[];portConstraint=eastwest;strokeColor=inherit;" vertex="1" parent="zCXyR9ZO4YI8tIfsWMdl-262">
          <mxGeometry y="116.53571428571429" width="346.4150943396226" height="9.285714285714286" as="geometry" />
        </mxCell>
        <mxCell id="zCXyR9ZO4YI8tIfsWMdl-266" value="+ Simulator(filepath : String)" style="text;strokeColor=none;fillColor=none;align=left;verticalAlign=top;spacingLeft=4;spacingRight=4;overflow=hidden;rotatable=0;points=[[0,0.5],[1,0.5]];portConstraint=eastwest;whiteSpace=wrap;html=1;" vertex="1" parent="zCXyR9ZO4YI8tIfsWMdl-262">
          <mxGeometry y="125.82142857142858" width="346.4150943396226" height="30.17857142857143" as="geometry" />
        </mxCell>
        <mxCell id="zCXyR9ZO4YI8tIfsWMdl-267" value="+ run() : void" style="text;strokeColor=none;fillColor=none;align=left;verticalAlign=top;spacingLeft=4;spacingRight=4;overflow=hidden;rotatable=0;points=[[0,0.5],[1,0.5]];portConstraint=eastwest;whiteSpace=wrap;html=1;" vertex="1" parent="zCXyR9ZO4YI8tIfsWMdl-262">
          <mxGeometry y="156" width="346.4150943396226" height="30.17857142857143" as="geometry" />
        </mxCell>
        <mxCell id="zCXyR9ZO4YI8tIfsWMdl-268" value="- isNeededToDetach(aircraft : Flyable) : Boolean" style="text;strokeColor=none;fillColor=none;align=left;verticalAlign=top;spacingLeft=4;spacingRight=4;overflow=hidden;rotatable=0;points=[[0,0.5],[1,0.5]];portConstraint=eastwest;whiteSpace=wrap;html=1;" vertex="1" parent="zCXyR9ZO4YI8tIfsWMdl-262">
          <mxGeometry y="186.17857142857144" width="346.4150943396226" height="30.17857142857143" as="geometry" />
        </mxCell>
        <mxCell id="zCXyR9ZO4YI8tIfsWMdl-297" value="" style="group" vertex="1" connectable="0" parent="1">
          <mxGeometry x="1460" y="80" width="1210" height="380" as="geometry" />
        </mxCell>
        <mxCell id="zCXyR9ZO4YI8tIfsWMdl-269" value="Parser" style="swimlane;fontStyle=1;align=center;verticalAlign=top;childLayout=stackLayout;horizontal=1;startSize=26;horizontalStack=0;resizeParent=1;resizeParentMax=0;resizeLast=0;collapsible=1;marginBottom=0;whiteSpace=wrap;html=1;rounded=1;fillColor=#d5e8d4;strokeColor=#82b366;movable=1;resizable=1;rotatable=1;deletable=1;editable=1;locked=0;connectable=1;" vertex="1" parent="zCXyR9ZO4YI8tIfsWMdl-297">
          <mxGeometry x="310" y="50" width="390" height="276.7142857142858" as="geometry" />
        </mxCell>
        <mxCell id="zCXyR9ZO4YI8tIfsWMdl-271" value="- metaData : SimulationMetaData" style="text;strokeColor=none;fillColor=none;align=left;verticalAlign=top;spacingLeft=4;spacingRight=4;overflow=hidden;rotatable=0;points=[[0,0.5],[1,0.5]];portConstraint=eastwest;whiteSpace=wrap;html=1;" vertex="1" parent="zCXyR9ZO4YI8tIfsWMdl-269">
          <mxGeometry y="26" width="390" height="30.17857142857143" as="geometry" />
        </mxCell>
        <mxCell id="zCXyR9ZO4YI8tIfsWMdl-276" value="- ParsedData : data" style="text;strokeColor=none;fillColor=none;align=left;verticalAlign=top;spacingLeft=4;spacingRight=4;overflow=hidden;rotatable=0;points=[[0,0.5],[1,0.5]];portConstraint=eastwest;whiteSpace=wrap;html=1;" vertex="1" parent="zCXyR9ZO4YI8tIfsWMdl-269">
          <mxGeometry y="56.17857142857143" width="390" height="30.17857142857143" as="geometry" />
        </mxCell>
        <mxCell id="zCXyR9ZO4YI8tIfsWMdl-272" value="" style="line;strokeWidth=1;fillColor=none;align=left;verticalAlign=middle;spacingTop=-1;spacingLeft=3;spacingRight=3;rotatable=0;labelPosition=right;points=[];portConstraint=eastwest;strokeColor=inherit;" vertex="1" parent="zCXyR9ZO4YI8tIfsWMdl-269">
          <mxGeometry y="86.35714285714286" width="390" height="9.285714285714286" as="geometry" />
        </mxCell>
        <mxCell id="zCXyR9ZO4YI8tIfsWMdl-273" value="+ Parser(filepath : String)" style="text;strokeColor=none;fillColor=none;align=left;verticalAlign=top;spacingLeft=4;spacingRight=4;overflow=hidden;rotatable=0;points=[[0,0.5],[1,0.5]];portConstraint=eastwest;whiteSpace=wrap;html=1;" vertex="1" parent="zCXyR9ZO4YI8tIfsWMdl-269">
          <mxGeometry y="95.64285714285715" width="390" height="30.17857142857143" as="geometry" />
        </mxCell>
        <mxCell id="zCXyR9ZO4YI8tIfsWMdl-274" value="+ getParsedData() : ParsedData" style="text;strokeColor=none;fillColor=none;align=left;verticalAlign=top;spacingLeft=4;spacingRight=4;overflow=hidden;rotatable=0;points=[[0,0.5],[1,0.5]];portConstraint=eastwest;whiteSpace=wrap;html=1;" vertex="1" parent="zCXyR9ZO4YI8tIfsWMdl-269">
          <mxGeometry y="125.82142857142858" width="390" height="30.17857142857143" as="geometry" />
        </mxCell>
        <mxCell id="zCXyR9ZO4YI8tIfsWMdl-275" value="- readSenarioFile(filepath : String) : ArrayList&amp;lt;String&amp;gt;" style="text;strokeColor=none;fillColor=none;align=left;verticalAlign=top;spacingLeft=4;spacingRight=4;overflow=hidden;rotatable=0;points=[[0,0.5],[1,0.5]];portConstraint=eastwest;whiteSpace=wrap;html=1;" vertex="1" parent="zCXyR9ZO4YI8tIfsWMdl-269">
          <mxGeometry y="156" width="390" height="30.17857142857143" as="geometry" />
        </mxCell>
        <mxCell id="zCXyR9ZO4YI8tIfsWMdl-277" value="- parseSimulationCount(lines : ArrayList&amp;lt;String&amp;gt;) : int" style="text;strokeColor=none;fillColor=none;align=left;verticalAlign=top;spacingLeft=4;spacingRight=4;overflow=hidden;rotatable=0;points=[[0,0.5],[1,0.5]];portConstraint=eastwest;whiteSpace=wrap;html=1;" vertex="1" parent="zCXyR9ZO4YI8tIfsWMdl-269">
          <mxGeometry y="186.17857142857144" width="390" height="30.17857142857143" as="geometry" />
        </mxCell>
        <mxCell id="zCXyR9ZO4YI8tIfsWMdl-278" value="- parseAircrafts(lines : ArrayList&amp;lt;String&amp;gt;) : ArrayList&amp;lt;Flyable&amp;gt;" style="text;strokeColor=none;fillColor=none;align=left;verticalAlign=top;spacingLeft=4;spacingRight=4;overflow=hidden;rotatable=0;points=[[0,0.5],[1,0.5]];portConstraint=eastwest;whiteSpace=wrap;html=1;" vertex="1" parent="zCXyR9ZO4YI8tIfsWMdl-269">
          <mxGeometry y="216.3571428571429" width="390" height="30.17857142857143" as="geometry" />
        </mxCell>
        <mxCell id="zCXyR9ZO4YI8tIfsWMdl-279" value="- isValidCoordinates(longitude : int, latitude : int, height : int) : Boolean" style="text;strokeColor=none;fillColor=none;align=left;verticalAlign=top;spacingLeft=4;spacingRight=4;overflow=hidden;rotatable=0;points=[[0,0.5],[1,0.5]];portConstraint=eastwest;whiteSpace=wrap;html=1;" vertex="1" parent="zCXyR9ZO4YI8tIfsWMdl-269">
          <mxGeometry y="246.53571428571433" width="390" height="30.17857142857143" as="geometry" />
        </mxCell>
        <mxCell id="zCXyR9ZO4YI8tIfsWMdl-280" value="Parser" style="shape=umlFrame;whiteSpace=wrap;html=1;pointerEvents=0;" vertex="1" parent="zCXyR9ZO4YI8tIfsWMdl-297">
          <mxGeometry x="90" width="1120" height="380" as="geometry" />
        </mxCell>
        <mxCell id="zCXyR9ZO4YI8tIfsWMdl-281" value="&lt;b&gt;&lt;i&gt;Parser&lt;/i&gt;&lt;/b&gt;" style="html=1;whiteSpace=wrap;" vertex="1" parent="zCXyR9ZO4YI8tIfsWMdl-297">
          <mxGeometry x="90" width="110" height="40" as="geometry" />
        </mxCell>
        <mxCell id="zCXyR9ZO4YI8tIfsWMdl-294" style="edgeStyle=orthogonalEdgeStyle;rounded=0;orthogonalLoop=1;jettySize=auto;html=1;endArrow=diamondThin;endFill=1;" edge="1" parent="zCXyR9ZO4YI8tIfsWMdl-297" source="zCXyR9ZO4YI8tIfsWMdl-282" target="zCXyR9ZO4YI8tIfsWMdl-269">
          <mxGeometry relative="1" as="geometry">
            <Array as="points">
              <mxPoint x="690" y="143" />
              <mxPoint x="690" y="143" />
            </Array>
          </mxGeometry>
        </mxCell>
        <mxCell id="zCXyR9ZO4YI8tIfsWMdl-282" value="ParsedData" style="swimlane;fontStyle=1;align=center;verticalAlign=top;childLayout=stackLayout;horizontal=1;startSize=26;horizontalStack=0;resizeParent=1;resizeParentMax=0;resizeLast=0;collapsible=1;marginBottom=0;whiteSpace=wrap;html=1;rounded=1;fillColor=#d5e8d4;strokeColor=#82b366;movable=1;resizable=1;rotatable=1;deletable=1;editable=1;locked=0;connectable=1;" vertex="1" parent="zCXyR9ZO4YI8tIfsWMdl-297">
          <mxGeometry x="780" y="50" width="390" height="186.17857142857144" as="geometry" />
        </mxCell>
        <mxCell id="zCXyR9ZO4YI8tIfsWMdl-283" value="- simulationCount : int" style="text;strokeColor=none;fillColor=none;align=left;verticalAlign=top;spacingLeft=4;spacingRight=4;overflow=hidden;rotatable=0;points=[[0,0.5],[1,0.5]];portConstraint=eastwest;whiteSpace=wrap;html=1;" vertex="1" parent="zCXyR9ZO4YI8tIfsWMdl-282">
          <mxGeometry y="26" width="390" height="30.17857142857143" as="geometry" />
        </mxCell>
        <mxCell id="zCXyR9ZO4YI8tIfsWMdl-284" value="- Aircrafts : ArrayList&amp;lt;Flyable&amp;gt;" style="text;strokeColor=none;fillColor=none;align=left;verticalAlign=top;spacingLeft=4;spacingRight=4;overflow=hidden;rotatable=0;points=[[0,0.5],[1,0.5]];portConstraint=eastwest;whiteSpace=wrap;html=1;" vertex="1" parent="zCXyR9ZO4YI8tIfsWMdl-282">
          <mxGeometry y="56.17857142857143" width="390" height="30.17857142857143" as="geometry" />
        </mxCell>
        <mxCell id="zCXyR9ZO4YI8tIfsWMdl-285" value="" style="line;strokeWidth=1;fillColor=none;align=left;verticalAlign=middle;spacingTop=-1;spacingLeft=3;spacingRight=3;rotatable=0;labelPosition=right;points=[];portConstraint=eastwest;strokeColor=inherit;" vertex="1" parent="zCXyR9ZO4YI8tIfsWMdl-282">
          <mxGeometry y="86.35714285714286" width="390" height="9.285714285714286" as="geometry" />
        </mxCell>
        <mxCell id="zCXyR9ZO4YI8tIfsWMdl-291" value="+ ParsedData(simulationCount : int, aircrafts : ArrayList&amp;lt;Flyable&amp;gt;)" style="text;strokeColor=none;fillColor=none;align=left;verticalAlign=top;spacingLeft=4;spacingRight=4;overflow=hidden;rotatable=0;points=[[0,0.5],[1,0.5]];portConstraint=eastwest;whiteSpace=wrap;html=1;" vertex="1" parent="zCXyR9ZO4YI8tIfsWMdl-282">
          <mxGeometry y="95.64285714285715" width="390" height="30.17857142857143" as="geometry" />
        </mxCell>
        <mxCell id="zCXyR9ZO4YI8tIfsWMdl-292" value="+ getSimulationCount() : int" style="text;strokeColor=none;fillColor=none;align=left;verticalAlign=top;spacingLeft=4;spacingRight=4;overflow=hidden;rotatable=0;points=[[0,0.5],[1,0.5]];portConstraint=eastwest;whiteSpace=wrap;html=1;" vertex="1" parent="zCXyR9ZO4YI8tIfsWMdl-282">
          <mxGeometry y="125.82142857142858" width="390" height="30.17857142857143" as="geometry" />
        </mxCell>
        <mxCell id="zCXyR9ZO4YI8tIfsWMdl-293" value="+ getAircrafts() : ArrayList&amp;lt;Flyable&amp;gt;" style="text;strokeColor=none;fillColor=none;align=left;verticalAlign=top;spacingLeft=4;spacingRight=4;overflow=hidden;rotatable=0;points=[[0,0.5],[1,0.5]];portConstraint=eastwest;whiteSpace=wrap;html=1;" vertex="1" parent="zCXyR9ZO4YI8tIfsWMdl-282">
          <mxGeometry y="156" width="390" height="30.17857142857143" as="geometry" />
        </mxCell>
        <mxCell id="zCXyR9ZO4YI8tIfsWMdl-295" value="&lt;p style=&quot;margin:0px;margin-top:4px;text-align:center;&quot;&gt;&lt;i&gt;&amp;lt;&amp;lt;Interface&amp;gt;&amp;gt;&lt;/i&gt;&lt;br&gt;&lt;b&gt;ParserInterface&lt;/b&gt;&lt;/p&gt;&lt;hr size=&quot;1&quot;&gt;&lt;p style=&quot;margin:0px;margin-left:4px;&quot;&gt;+ getParsedData() : ParsedData&lt;/p&gt;" style="verticalAlign=top;align=left;overflow=fill;fontSize=12;fontFamily=Helvetica;html=1;whiteSpace=wrap;rounded=0;fillColor=#f5f5f5;strokeColor=#666666;fontColor=#333333;movable=1;resizable=1;rotatable=1;deletable=1;editable=1;locked=0;connectable=1;" vertex="1" parent="zCXyR9ZO4YI8tIfsWMdl-297">
          <mxGeometry y="73.09" width="230" height="66.91" as="geometry" />
        </mxCell>
        <mxCell id="zCXyR9ZO4YI8tIfsWMdl-296" style="edgeStyle=orthogonalEdgeStyle;rounded=0;orthogonalLoop=1;jettySize=auto;html=1;entryX=1;entryY=0.5;entryDx=0;entryDy=0;dashed=1;dashPattern=8 8;" edge="1" parent="zCXyR9ZO4YI8tIfsWMdl-297" source="zCXyR9ZO4YI8tIfsWMdl-269" target="zCXyR9ZO4YI8tIfsWMdl-295">
          <mxGeometry relative="1" as="geometry" />
        </mxCell>
        <mxCell id="zCXyR9ZO4YI8tIfsWMdl-298" style="edgeStyle=orthogonalEdgeStyle;rounded=0;orthogonalLoop=1;jettySize=auto;html=1;endArrow=diamondThin;endFill=1;" edge="1" parent="1" source="zCXyR9ZO4YI8tIfsWMdl-295" target="zCXyR9ZO4YI8tIfsWMdl-262">
          <mxGeometry relative="1" as="geometry" />
        </mxCell>
        <mxCell id="zCXyR9ZO4YI8tIfsWMdl-299" value="frame" style="shape=umlFrame;whiteSpace=wrap;html=1;pointerEvents=0;" vertex="1" parent="1">
          <mxGeometry x="-340" y="243.45999999999998" width="620" height="510" as="geometry" />
        </mxCell>
        <mxCell id="zCXyR9ZO4YI8tIfsWMdl-300" value="&lt;b&gt;&lt;i&gt;WeatherProvider&lt;/i&gt;&lt;/b&gt;" style="html=1;whiteSpace=wrap;" vertex="1" parent="1">
          <mxGeometry x="-340" y="243.45999999999998" width="110" height="50" as="geometry" />
        </mxCell>
        <mxCell id="zCXyR9ZO4YI8tIfsWMdl-301" value="frame" style="shape=umlFrame;whiteSpace=wrap;html=1;pointerEvents=0;" vertex="1" parent="1">
          <mxGeometry x="-340" y="890" width="620" height="510" as="geometry" />
        </mxCell>
        <mxCell id="zCXyR9ZO4YI8tIfsWMdl-302" value="&lt;b&gt;&lt;i&gt;WeatherTower&lt;/i&gt;&lt;/b&gt;" style="html=1;whiteSpace=wrap;" vertex="1" parent="1">
          <mxGeometry x="-340" y="890" width="110" height="50" as="geometry" />
        </mxCell>
        <mxCell id="zCXyR9ZO4YI8tIfsWMdl-303" value="Main" style="swimlane;fontStyle=1;align=center;verticalAlign=top;childLayout=stackLayout;horizontal=1;startSize=26;horizontalStack=0;resizeParent=1;resizeParentMax=0;resizeLast=0;collapsible=1;marginBottom=0;whiteSpace=wrap;html=1;rounded=1;fillColor=#d5e8d4;strokeColor=#82b366;movable=1;resizable=1;rotatable=1;deletable=1;editable=1;locked=0;connectable=1;" vertex="1" parent="1">
          <mxGeometry x="451.7890566037736" y="303.82" width="346.4150943396226" height="95.64285714285715" as="geometry" />
        </mxCell>
        <mxCell id="zCXyR9ZO4YI8tIfsWMdl-306" value="" style="line;strokeWidth=1;fillColor=none;align=left;verticalAlign=middle;spacingTop=-1;spacingLeft=3;spacingRight=3;rotatable=0;labelPosition=right;points=[];portConstraint=eastwest;strokeColor=inherit;" vertex="1" parent="zCXyR9ZO4YI8tIfsWMdl-303">
          <mxGeometry y="26" width="346.4150943396226" height="9.285714285714286" as="geometry" />
        </mxCell>
        <mxCell id="zCXyR9ZO4YI8tIfsWMdl-307" value="+ validateArgs(args : String[]) : Boolean" style="text;strokeColor=none;fillColor=none;align=left;verticalAlign=top;spacingLeft=4;spacingRight=4;overflow=hidden;rotatable=0;points=[[0,0.5],[1,0.5]];portConstraint=eastwest;whiteSpace=wrap;html=1;" vertex="1" parent="zCXyR9ZO4YI8tIfsWMdl-303">
          <mxGeometry y="35.285714285714285" width="346.4150943396226" height="30.17857142857143" as="geometry" />
        </mxCell>
        <mxCell id="zCXyR9ZO4YI8tIfsWMdl-309" value="+ main(args : String[]) : void" style="text;strokeColor=none;fillColor=none;align=left;verticalAlign=top;spacingLeft=4;spacingRight=4;overflow=hidden;rotatable=0;points=[[0,0.5],[1,0.5]];portConstraint=eastwest;whiteSpace=wrap;html=1;" vertex="1" parent="zCXyR9ZO4YI8tIfsWMdl-303">
          <mxGeometry y="65.46428571428572" width="346.4150943396226" height="30.17857142857143" as="geometry" />
        </mxCell>
      </root>
    </mxGraphModel>
  </diagram>
</mxfile>
